<?xml version="1.0" standalone="no"?>
<!DOCTYPE svg PUBLIC "-//W3C//DTD SVG 20010904//EN"
 "http://www.w3.org/TR/2001/REC-SVG-20010904/DTD/svg10.dtd">
<svg version="1.0" xmlns="http://www.w3.org/2000/svg"
 width="460.000000pt" height="460.000000pt" viewBox="0 0 460.000000 460.000000"
 preserveAspectRatio="xMidYMid meet">

<g transform="translate(0.000000,460.000000) scale(0.100000,-0.100000)"
fill="#000000" stroke="none">
<path d="M1930 4249 c-58 -5 -114 -13 -125 -18 -11 -5 -56 -19 -100 -31 -136
-38 -314 -131 -435 -229 -57 -46 -170 -157 -170 -167 0 -4 -7 -14 -15 -23 -33
-35 -65 -79 -65 -90 0 -6 -8 -19 -18 -29 -9 -9 -24 -37 -32 -62 -8 -25 -17
-47 -20 -50 -6 -5 -51 -146 -69 -213 -10 -39 -11 -231 -1 -254 3 -9 -35 -27
-115 -54 -66 -23 -129 -48 -140 -55 -11 -8 -29 -14 -41 -14 -39 0 -75 -67 -54
-100 10 -16 78 -19 88 -4 4 5 32 17 62 26 30 9 93 30 140 47 90 33 154 51 207
56 18 2 40 10 48 19 9 9 24 16 34 16 9 0 21 4 27 9 9 9 30 14 179 47 38 9 88
22 110 29 22 7 66 16 97 20 32 3 60 10 62 14 3 4 26 8 52 10 26 1 55 6 65 12
27 14 62 11 56 -5 -6 -15 -49 -155 -53 -171 -1 -5 -5 -26 -9 -45 -3 -19 -10
-53 -15 -75 -16 -68 -12 -192 6 -220 17 -26 48 -33 60 -14 4 7 6 42 5 80 -2
68 -2 68 31 85 18 9 38 24 45 33 10 14 16 7 39 -44 44 -98 96 -139 132 -103
19 19 15 41 -24 125 -35 76 -104 274 -104 299 0 7 -16 26 -36 42 l-35 29 33 7
c18 4 53 9 78 12 25 3 79 11 120 19 41 7 100 16 130 20 30 3 78 10 105 15 28
5 91 14 140 20 50 6 115 15 145 21 30 5 89 13 130 19 41 5 135 18 209 30 171
26 179 26 183 -2 2 -18 11 -24 36 -26 39 -4 62 12 62 43 0 27 16 31 129 34
178 4 212 -33 226 -249 9 -132 5 -454 -5 -464 -7 -7 -91 -11 -228 -13 -119 -1
-208 1 -196 3 31 7 51 52 57 130 5 67 9 75 62 147 32 43 61 77 65 77 5 0 12
13 18 28 13 38 -1 62 -37 62 -30 0 -81 -21 -81 -33 0 -4 -11 -18 -23 -30 -13
-12 -29 -32 -36 -45 -12 -22 -12 -22 -72 28 -33 27 -64 50 -69 50 -5 0 -18
-12 -29 -26 -19 -24 -19 -29 -6 -54 8 -15 24 -34 37 -42 53 -36 88 -78 86
-105 -1 -16 -5 -32 -8 -38 -16 -22 -18 -94 -4 -121 8 -15 13 -29 11 -30 -2 -2
-100 -9 -218 -14 -118 -6 -230 -12 -249 -14 -351 -37 -425 -48 -565 -86 -38
-10 -115 -28 -170 -40 -55 -12 -116 -28 -135 -35 -19 -7 -84 -25 -145 -39 -60
-15 -119 -31 -130 -35 -11 -5 -38 -14 -60 -19 -107 -29 -281 -87 -287 -96 -7
-11 -32 6 -62 42 -32 40 -116 172 -116 183 0 6 -11 25 -25 42 -29 39 -82 161
-88 203 -4 32 -29 43 -53 23 -17 -14 -15 -85 5 -132 6 -16 11 -33 11 -39 0
-17 44 -102 56 -110 7 -4 15 -19 18 -34 4 -14 18 -43 31 -65 14 -21 25 -41 25
-44 0 -4 14 -26 30 -50 36 -52 36 -55 9 -55 -12 0 -38 -9 -58 -19 -20 -11 -44
-22 -53 -25 -26 -8 -96 -108 -103 -146 -3 -19 -11 -40 -16 -46 -6 -7 -8 -27
-5 -46 3 -18 8 -45 10 -60 10 -62 101 -188 136 -188 5 0 10 -4 10 -9 0 -18 87
-44 158 -46 l73 -3 4 -103 c4 -102 21 -259 33 -289 7 -21 9 -28 20 -80 16 -73
73 -207 128 -300 38 -65 126 -164 215 -243 57 -50 184 -137 200 -137 6 0 27
-11 47 -25 20 -14 44 -25 52 -25 9 0 25 -6 36 -14 11 -8 38 -18 60 -21 21 -4
44 -11 50 -16 5 -5 53 -16 105 -25 95 -18 350 -24 434 -10 86 13 185 38 190
47 4 5 17 9 30 9 12 0 50 14 83 30 34 17 68 30 76 30 9 0 16 5 16 10 0 6 9 10
19 10 11 0 26 7 35 15 8 8 18 15 22 15 12 0 237 142 268 170 119 105 225 224
266 297 15 27 41 73 58 105 18 31 32 63 32 72 0 9 4 24 9 34 29 56 38 100 61
275 18 139 6 341 -29 485 -13 55 -67 196 -95 250 -13 26 -27 54 -30 62 -14 33
-87 143 -100 152 -18 12 -46 9 -62 -6 -31 -31 -22 -57 63 -192 27 -41 74 -146
80 -177 3 -17 10 -34 15 -38 4 -3 12 -25 18 -50 5 -24 16 -73 25 -109 20 -81
27 -285 14 -365 -6 -33 -12 -74 -14 -92 -5 -43 -33 -138 -51 -171 -8 -15 -14
-32 -14 -39 0 -19 -33 -83 -42 -83 -4 0 -8 -7 -8 -15 0 -8 -4 -15 -10 -15 -5
0 -10 -7 -10 -16 0 -9 -12 -31 -27 -49 -16 -18 -38 -46 -50 -61 -35 -46 -139
-154 -148 -154 -5 0 -18 -9 -29 -19 -43 -40 -194 -133 -296 -182 -58 -28 -112
-54 -120 -58 -38 -18 -221 -70 -280 -79 -108 -17 -410 -2 -410 19 0 5 -3 8 -7
7 -16 -4 -123 24 -128 33 -4 5 -17 9 -31 9 -13 0 -24 3 -24 8 0 4 -21 16 -48
26 -26 10 -78 40 -116 65 -38 25 -76 51 -84 56 -23 14 -93 77 -111 99 -9 10
-28 30 -43 44 -16 14 -28 30 -28 35 0 5 -11 20 -24 32 -13 12 -27 32 -31 43
-3 12 -11 22 -16 22 -5 0 -9 5 -9 11 0 6 -8 23 -18 37 -10 15 -35 81 -56 147
-21 66 -42 131 -46 145 -16 46 -33 231 -34 355 -1 161 39 380 75 416 15 15 17
24 9 39 -10 19 -40 18 -40 -2 0 -5 -4 -6 -10 -3 -5 3 -10 1 -10 -5 0 -6 -4 -9
-9 -5 -20 12 -68 -161 -86 -313 l-7 -53 -36 7 c-21 4 -46 11 -57 17 -11 6 -21
9 -23 8 -1 -1 -23 7 -47 19 -50 24 -115 84 -115 106 0 8 -4 14 -10 14 -6 0
-10 27 -10 61 0 64 16 98 70 147 51 46 98 64 151 57 27 -4 59 -14 71 -24 33
-24 78 -42 89 -36 16 11 9 44 -13 59 -12 9 -20 17 -17 19 13 11 79 36 109 42
19 4 41 12 48 17 7 6 31 13 55 16 23 2 51 11 62 18 11 8 31 14 44 14 25 0 44
5 136 34 28 9 62 16 78 16 15 0 27 4 27 9 0 5 19 12 43 16 23 3 51 10 62 15
29 12 102 31 155 39 25 4 51 11 59 15 15 10 116 30 226 47 77 11 116 16 219
24 38 3 72 7 75 9 7 4 109 12 267 22 130 7 596 14 605 8 4 -2 4 -19 0 -36 -5
-21 -2 -53 7 -85 14 -51 16 -53 49 -53 l35 0 -6 73 c-8 85 0 97 84 140 59 29
110 34 173 16 49 -13 131 -94 142 -140 17 -72 -3 -200 -40 -249 -6 -8 -17 -28
-25 -44 -21 -42 -137 -154 -163 -158 -31 -4 -34 -42 -5 -62 28 -20 67 -20 103
-2 28 15 115 99 115 112 0 4 9 17 19 28 68 72 111 249 91 371 -12 78 -34 119
-87 166 -61 53 -117 73 -210 73 l-83 1 -1 230 c0 284 -5 339 -29 392 -11 24
-20 47 -20 53 0 5 -4 10 -10 10 -5 0 -10 6 -10 13 0 48 -115 91 -235 87 -193
-6 -180 -8 -183 20 -3 26 -14 55 -38 102 -8 14 -14 34 -15 45 0 10 -16 45 -34
78 -19 33 -40 74 -48 90 -8 17 -21 36 -30 44 -10 7 -17 18 -17 24 0 5 -10 20
-22 32 -13 12 -52 52 -87 88 -35 37 -68 67 -73 67 -4 0 -27 12 -51 27 -23 15
-51 32 -62 38 -37 20 -179 69 -225 76 -25 5 -72 13 -105 19 -82 15 -278 19
-405 9z m392 -105 c88 -16 230 -63 302 -100 100 -52 239 -172 263 -227 7 -15
20 -30 28 -33 8 -4 15 -13 15 -21 0 -8 7 -29 16 -46 34 -65 33 -61 80 -195 9
-24 14 -46 12 -48 -12 -11 -131 -34 -178 -34 -31 0 -60 -3 -64 -7 -4 -4 -21
-8 -39 -9 -48 -3 -118 -13 -128 -20 -5 -3 -46 -8 -91 -11 -46 -3 -101 -11
-123 -17 -22 -7 -67 -13 -100 -15 -33 -1 -77 -6 -97 -12 -20 -5 -40 -9 -45 -8
-4 1 -10 0 -13 -1 -3 -1 -30 -4 -60 -6 -30 -3 -64 -9 -75 -13 -11 -5 -63 -14
-115 -21 -213 -27 -236 -30 -270 -39 -19 -5 -69 -17 -110 -26 -41 -9 -93 -21
-115 -26 -22 -5 -53 -12 -70 -14 -16 -3 -55 -11 -85 -19 -30 -9 -75 -20 -100
-27 -25 -6 -62 -18 -83 -27 -47 -19 -96 -20 -108 -1 -17 27 -9 143 16 239 32
118 105 272 160 336 6 7 19 25 30 40 24 34 76 88 126 129 105 87 138 109 269
171 41 20 83 40 94 46 10 5 30 12 45 14 14 3 44 12 66 21 22 9 72 22 110 28
92 17 340 16 437 -1z m-512 -1203 c0 -10 -8 -25 -17 -32 -15 -13 -16 -11 -10
11 4 14 7 31 7 38 0 7 5 10 10 7 6 -3 10 -14 10 -24z"/>
<path d="M2576 3171 c-41 -8 -46 -36 -43 -233 2 -157 3 -168 24 -187 27 -26
41 -12 49 53 l7 46 51 0 c58 0 140 34 171 71 15 19 19 39 19 90 -1 63 -3 69
-35 98 -19 17 -41 31 -49 31 -9 0 -25 6 -36 14 -23 17 -114 26 -158 17z m149
-127 c14 -9 25 -24 25 -33 0 -24 -37 -52 -76 -58 -19 -3 -37 -10 -40 -14 -15
-25 -24 -2 -22 61 1 61 4 69 22 73 25 4 56 -6 91 -29z"/>
<path d="M2175 3162 c-63 -6 -130 -23 -137 -35 -14 -21 -8 -99 17 -242 23
-132 45 -189 70 -187 6 0 16 -4 23 -10 33 -28 56 47 27 86 -8 11 -15 32 -15
48 0 27 2 28 50 28 27 0 66 8 87 18 40 18 93 65 93 82 0 5 5 10 10 10 6 0 10
24 10 53 0 43 -5 60 -25 83 -14 16 -25 32 -25 37 0 4 -10 7 -23 7 -13 0 -27 4
-32 9 -12 10 -86 18 -130 13z m93 -114 c62 -19 22 -78 -63 -93 -22 -4 -46 -12
-52 -18 -10 -7 -13 0 -15 32 -4 89 -4 86 19 83 12 -2 24 1 27 7 6 9 25 7 84
-11z"/>
<path d="M1412 3012 c-25 -19 -28 -35 -17 -98 6 -37 3 -44 -19 -62 -14 -11
-26 -23 -26 -27 0 -3 -18 -23 -41 -43 -23 -20 -52 -56 -66 -80 -14 -23 -28
-40 -32 -37 -15 8 -72 131 -75 160 -2 17 -4 33 -5 38 -2 14 -60 7 -76 -9 -23
-24 -11 -84 33 -164 55 -98 82 -154 82 -166 0 -6 9 -19 20 -29 11 -10 20 -24
20 -32 0 -8 13 -27 28 -43 22 -21 35 -27 55 -23 15 3 30 10 34 16 8 14 11 77
3 77 -12 0 -31 91 -25 119 3 16 18 42 33 58 15 16 42 46 60 67 27 31 36 36 43
25 5 -8 9 -21 9 -29 0 -17 26 -72 50 -106 8 -12 30 -25 47 -28 29 -7 34 -4 44
18 11 23 8 35 -24 99 -55 112 -87 203 -87 250 0 64 -25 82 -68 49z"/>
<path d="M2698 2270 c-48 -40 -76 -96 -94 -194 -17 -85 -14 -176 6 -233 17
-46 70 -77 118 -68 93 17 137 87 151 239 14 151 -9 234 -74 266 -54 26 -64 25
-107 -10z"/>
<path d="M1858 2233 c-20 -23 -41 -64 -44 -83 0 -8 -8 -51 -17 -95 -25 -133
12 -292 73 -308 29 -8 93 3 111 19 8 8 21 14 27 14 7 0 12 5 12 10 0 6 6 10
14 10 8 0 18 19 25 44 12 49 15 199 4 210 -4 4 -9 18 -11 33 -4 31 -37 99 -61
124 -36 39 -108 50 -133 22z"/>
<path d="M2310 1785 c-67 -31 -96 -61 -115 -120 -44 -141 8 -230 154 -265 91
-22 211 35 231 109 18 70 -10 211 -42 211 -4 0 -8 6 -8 13 0 6 -17 23 -37 36
-47 30 -134 38 -183 16z m137 -112 c7 -10 18 -25 25 -33 7 -8 13 -34 13 -58 0
-34 -5 -47 -25 -62 -34 -27 -92 -25 -138 3 -20 13 -45 26 -54 30 -23 8 -22 22
2 75 13 29 30 47 52 57 42 19 108 13 125 -12z"/>
<path d="M2780 1274 c-6 -14 -10 -29 -10 -33 0 -4 -10 -27 -21 -51 -35 -71
-111 -150 -174 -179 -106 -50 -167 -53 -263 -14 -84 33 -109 48 -149 93 -53
58 -55 60 -62 88 -13 49 -71 36 -71 -16 0 -70 99 -185 201 -234 172 -82 385
-52 502 69 81 84 137 183 137 242 0 56 -72 85 -90 35z"/>
</g>
</svg>
