<?xml version="1.0" standalone="no"?>
<!DOCTYPE svg PUBLIC "-//W3C//DTD SVG 20010904//EN"
 "http://www.w3.org/TR/2001/REC-SVG-20010904/DTD/svg10.dtd">
<svg version="1.0" xmlns="http://www.w3.org/2000/svg"
 width="2224.000000pt" height="1668.000000pt" viewBox="0 0 2224.000000 1668.000000"
 preserveAspectRatio="xMidYMid meet">

<g transform="translate(0.000000,1668.000000) scale(0.100000,-0.100000)"
fill="#000000" stroke="none">
<path d="M10020 15469 c-14 -6 -33 -8 -42 -5 -10 2 -18 0 -18 -6 0 -5 -9 -6
-20 -3 -12 4 -20 2 -20 -6 0 -9 -3 -9 -15 1 -8 6 -18 10 -22 7 -4 -3 -30 -8
-58 -11 -27 -3 -63 -9 -80 -14 -29 -9 -86 -8 -171 2 -24 3 -51 -1 -68 -9 -16
-8 -33 -12 -38 -9 -6 4 -13 2 -17 -4 -3 -6 -42 -13 -85 -17 -43 -3 -83 -9 -90
-13 -6 -4 -39 -7 -74 -8 -35 -1 -68 -6 -75 -13 -6 -6 -17 -11 -25 -11 -8 0
-20 -7 -26 -15 -7 -10 -33 -16 -76 -19 -89 -5 -165 -22 -190 -43 -11 -10 -24
-18 -28 -19 -4 0 -14 -3 -22 -7 -15 -5 -74 -17 -116 -23 -11 -1 -36 -11 -56
-22 -20 -12 -50 -20 -67 -20 -17 1 -39 -6 -49 -15 -10 -10 -22 -17 -27 -17 -4
0 -22 -11 -39 -24 -36 -27 -64 -37 -106 -38 -16 -1 -30 -5 -30 -10 0 -4 -7 -8
-15 -8 -8 0 -15 -4 -15 -8 0 -14 -57 -42 -87 -42 -15 0 -37 -7 -47 -15 -11 -8
-28 -15 -38 -15 -10 0 -18 -4 -18 -8 0 -5 -12 -15 -27 -23 -16 -8 -60 -35
-100 -62 -40 -26 -76 -47 -80 -46 -14 3 -83 -31 -83 -41 0 -6 -11 -8 -25 -4
-15 4 -25 2 -25 -5 0 -6 -7 -11 -16 -11 -9 0 -18 -8 -21 -18 -2 -10 -21 -26
-41 -36 -74 -37 -97 -50 -104 -60 -3 -5 -17 -11 -30 -13 -13 -2 -24 -8 -26
-13 -2 -6 -9 -10 -16 -10 -7 0 -21 -18 -31 -40 -15 -34 -23 -40 -49 -40 -35
-1 -63 -19 -80 -51 -6 -12 -29 -27 -51 -35 -22 -7 -49 -25 -60 -40 -29 -40
-86 -96 -120 -118 -17 -11 -36 -28 -43 -38 -7 -10 -20 -18 -28 -18 -8 0 -17
-7 -20 -15 -4 -9 -17 -21 -29 -28 -32 -17 -130 -109 -138 -130 -3 -9 -11 -17
-17 -17 -5 0 -10 -7 -10 -15 0 -9 -20 -28 -45 -43 -25 -15 -47 -34 -50 -42 -3
-8 -32 -44 -65 -80 -33 -35 -60 -70 -60 -76 0 -6 -6 -17 -14 -24 -8 -6 -13
-17 -10 -24 3 -7 -4 -17 -14 -22 -27 -13 -102 -102 -103 -122 -1 -9 -1 -23 0
-29 1 -7 -3 -13 -9 -13 -12 0 -70 -56 -70 -68 0 -4 -16 -25 -35 -45 -19 -20
-35 -45 -35 -55 0 -9 -12 -34 -26 -55 -22 -32 -24 -41 -12 -54 11 -14 11 -16
-3 -11 -21 8 -58 -33 -90 -98 -18 -38 -22 -57 -15 -64 8 -8 7 -13 -1 -18 -6
-4 -17 -19 -22 -32 -6 -14 -15 -32 -20 -40 -22 -35 -42 -91 -36 -100 3 -5 1
-18 -4 -27 -6 -10 -11 -13 -11 -8 0 6 -11 -3 -24 -18 -15 -17 -27 -47 -31 -78
-4 -27 -11 -49 -17 -49 -5 0 -7 -4 -4 -8 3 -5 -3 -26 -13 -48 -21 -45 -39
-109 -40 -141 -1 -41 -4 -58 -11 -63 -6 -4 -30 -69 -41 -110 -2 -8 -10 -21
-16 -28 -7 -7 -13 -25 -14 -40 -1 -82 -6 -124 -14 -130 -6 -4 -11 -20 -13 -37
-2 -16 -8 -35 -14 -42 -5 -7 -7 -26 -3 -42 4 -19 1 -40 -9 -60 -12 -22 -13
-37 -6 -55 9 -26 4 -56 -10 -56 -7 0 -23 -125 -21 -170 3 -66 2 -162 -3 -223
-4 -53 -1 -78 15 -119 11 -28 18 -56 16 -62 -2 -6 0 -24 5 -41 5 -16 13 -48
17 -70 5 -22 12 -48 16 -58 7 -16 4 -18 -16 -16 -13 2 -28 1 -34 -2 -5 -4 -23
-9 -40 -13 -16 -4 -32 -12 -36 -17 -3 -6 -21 -11 -40 -13 -19 -2 -47 -8 -62
-14 -16 -7 -32 -12 -37 -12 -5 0 -21 -5 -37 -12 -15 -6 -32 -10 -36 -9 -5 1
-20 -5 -35 -13 -35 -19 -65 -30 -75 -27 -4 0 -18 -4 -30 -11 -12 -7 -26 -11
-30 -10 -4 1 -10 -4 -13 -12 -4 -11 -15 -13 -34 -10 -15 4 -31 1 -34 -5 -4 -6
-15 -11 -26 -11 -10 0 -21 -7 -24 -16 -3 -8 -11 -12 -16 -9 -6 4 -19 -2 -28
-12 -10 -12 -37 -22 -66 -26 -28 -4 -53 -12 -57 -18 -3 -6 -17 -10 -30 -8 -32
3 -58 -9 -92 -43 -22 -22 -34 -27 -54 -22 -17 5 -24 3 -20 -3 8 -12 -14 -23
-46 -23 -18 0 -51 -9 -107 -28 -8 -3 -18 -5 -22 -4 -4 1 -18 -12 -31 -28 -14
-16 -27 -27 -30 -24 -14 15 -74 -116 -62 -136 3 -5 1 -10 -5 -10 -15 0 -30
-43 -19 -56 5 -6 7 -19 3 -28 -3 -9 1 -27 10 -41 9 -13 16 -33 16 -45 0 -11 3
-20 8 -21 31 -3 48 -10 58 -24 7 -9 18 -13 28 -9 11 4 16 1 16 -12 0 -14 3
-15 8 -6 5 7 17 11 28 10 10 -1 45 1 77 6 48 7 65 15 102 51 34 31 56 44 87
48 22 3 45 11 49 19 5 7 9 9 9 4 0 -5 7 -3 14 4 8 6 28 10 43 9 15 -2 43 5 62
14 19 9 45 17 58 17 12 0 23 5 23 10 0 6 10 10 23 10 24 0 24 -3 31 -98 2 -29
10 -59 16 -67 7 -9 10 -27 6 -45 -4 -23 -1 -32 10 -37 10 -4 14 -16 12 -37 -1
-21 2 -30 11 -28 8 2 12 -8 11 -30 -3 -52 -1 -65 8 -51 4 7 9 -10 10 -38 1
-28 -1 -55 -4 -61 -11 -18 -7 -190 4 -197 7 -4 9 -27 7 -54 -3 -35 0 -47 10
-47 12 0 32 -71 27 -92 -1 -5 2 -8 8 -8 15 0 39 -66 33 -89 -3 -12 -1 -21 6
-21 6 0 11 -11 11 -25 0 -14 5 -25 11 -25 6 0 8 -7 5 -16 -7 -19 12 -47 26
-38 5 3 6 -5 3 -19 -4 -15 -1 -30 9 -39 8 -9 13 -18 10 -21 -3 -3 1 -18 9 -34
8 -15 21 -41 28 -56 7 -16 24 -39 37 -52 13 -13 24 -34 24 -47 2 -26 25 -58
43 -58 13 0 55 -87 55 -113 0 -9 8 -26 17 -36 9 -11 18 -30 20 -43 2 -12 16
-42 31 -66 15 -24 31 -53 37 -63 5 -10 13 -19 17 -19 5 0 8 -10 8 -22 0 -36
11 -68 21 -62 5 3 9 0 9 -6 0 -6 13 -22 29 -35 19 -17 30 -38 35 -66 4 -26 24
-67 51 -106 25 -35 45 -68 45 -73 0 -6 5 -10 10 -10 6 0 18 -16 27 -35 9 -19
20 -35 23 -35 12 0 50 -37 50 -49 0 -6 5 -11 10 -11 6 0 10 -5 10 -10 0 -6
-12 -9 -27 -8 -40 3 -207 -42 -216 -59 -5 -7 -12 -11 -18 -8 -13 8 -99 -36
-99 -50 0 -15 -34 -31 -98 -45 -42 -10 -63 -22 -102 -61 -28 -27 -50 -54 -50
-60 0 -6 -4 -8 -9 -5 -14 9 -131 -126 -131 -152 0 -6 -7 -12 -15 -16 -8 -3
-15 -12 -15 -20 0 -8 -6 -17 -12 -19 -10 -4 -10 -8 1 -15 11 -8 9 -11 -8 -17
-11 -3 -21 -11 -21 -18 0 -6 -10 -21 -21 -33 -12 -13 -22 -35 -23 -51 -1 -15
-7 -37 -13 -48 -6 -11 -7 -29 -3 -40 4 -13 -2 -37 -17 -68 -14 -27 -22 -51
-19 -54 3 -4 1 -12 -6 -20 -17 -20 -30 -186 -15 -195 9 -6 9 -13 -1 -29 -8
-12 -10 -24 -5 -28 5 -3 10 -37 12 -76 1 -38 7 -72 12 -76 6 -4 8 -16 5 -27
-4 -11 -2 -30 4 -41 5 -12 14 -30 20 -41 6 -11 10 -26 10 -34 0 -7 6 -19 14
-26 8 -6 13 -17 10 -24 -3 -7 8 -26 23 -42 15 -16 27 -32 25 -36 -1 -4 12 -32
28 -63 17 -32 30 -63 30 -71 0 -8 5 -14 11 -14 13 0 27 -15 59 -62 14 -21 29
-38 33 -38 5 0 30 -18 55 -41 26 -22 59 -48 74 -57 16 -9 28 -22 28 -28 0 -16
62 -54 89 -54 12 0 21 -6 21 -15 0 -16 55 -55 77 -55 7 0 33 -13 59 -30 31
-19 55 -28 69 -24 16 4 29 -1 43 -16 11 -12 25 -19 30 -16 6 3 12 -1 16 -9 4
-11 21 -15 64 -15 35 0 73 -7 92 -17 32 -16 58 -19 110 -13 14 1 53 0 86 -4
46 -4 65 -2 73 8 11 13 20 15 91 19 39 2 37 10 29 -103 -1 -25 1 -104 5 -176
5 -91 4 -134 -3 -139 -18 -10 -13 -58 13 -128 14 -35 22 -68 18 -71 -3 -4 -5
-42 -3 -85 2 -52 -1 -81 -9 -86 -8 -5 -7 -12 5 -25 10 -11 16 -32 14 -52 -1
-18 1 -55 6 -82 4 -27 9 -76 10 -110 2 -33 10 -82 18 -107 9 -28 12 -50 6 -56
-5 -5 0 -24 12 -47 12 -23 17 -41 11 -45 -11 -7 8 -101 20 -101 5 0 8 -11 8
-25 0 -14 3 -25 8 -25 4 0 7 -21 8 -48 1 -28 10 -65 24 -92 17 -32 24 -65 26
-114 2 -38 8 -83 15 -100 25 -65 51 -116 60 -116 5 0 9 -9 9 -20 0 -20 32
-111 50 -142 6 -10 10 -29 10 -42 0 -14 6 -31 13 -38 6 -7 12 -19 13 -25 1 -7
2 -20 3 -28 0 -8 8 -15 17 -15 13 0 15 -7 11 -30 -4 -16 -3 -30 2 -30 5 0 14
-21 21 -47 7 -27 26 -67 42 -91 15 -24 28 -50 28 -59 0 -9 6 -24 13 -32 8 -9
20 -32 27 -51 8 -19 25 -46 37 -60 13 -14 23 -30 23 -37 0 -7 6 -16 13 -20 16
-11 47 -67 47 -86 0 -9 6 -22 13 -29 8 -7 26 -32 40 -55 14 -23 31 -44 37 -48
5 -3 10 -14 10 -23 0 -9 17 -34 38 -54 101 -99 122 -122 122 -133 0 -6 11 -18
25 -25 14 -8 28 -25 32 -39 7 -30 41 -80 66 -99 9 -7 17 -18 17 -23 0 -17 43
-48 68 -49 13 0 22 -6 22 -15 0 -8 0 -17 0 -20 0 -2 10 -16 23 -29 12 -14 35
-41 51 -61 15 -19 38 -38 51 -41 13 -3 25 -14 28 -25 3 -10 12 -19 19 -19 8 0
23 -15 33 -34 14 -25 34 -41 79 -61 39 -18 55 -29 47 -35 -14 -8 -11 -11 44
-41 17 -9 39 -29 50 -46 24 -35 98 -93 119 -93 9 0 20 -9 26 -21 7 -11 14 -18
17 -15 3 3 23 -8 43 -24 21 -17 45 -30 53 -30 9 0 24 -10 34 -23 21 -25 70
-50 84 -42 5 4 14 -5 20 -19 7 -14 30 -35 53 -47 23 -12 43 -24 46 -28 10 -13
65 -35 92 -37 15 -1 33 -7 40 -13 7 -5 31 -25 53 -43 44 -37 86 -58 115 -58
11 0 29 -9 39 -19 21 -21 99 -51 131 -51 11 0 20 -4 20 -10 0 -5 6 -7 13 -4 8
3 20 -2 27 -11 7 -8 23 -15 35 -15 12 0 36 -14 53 -31 17 -17 35 -28 41 -25 5
4 12 2 16 -4 3 -5 17 -7 29 -4 16 4 25 0 29 -10 3 -8 22 -18 42 -22 19 -3 38
-10 41 -15 3 -5 9 -7 14 -4 5 3 11 1 14 -4 4 -5 18 -6 34 -2 15 4 34 6 42 4
26 -7 65 -28 72 -37 8 -11 27 -15 88 -18 32 -1 53 -8 72 -26 15 -14 31 -23 34
-19 4 4 13 2 20 -4 9 -7 19 -7 33 1 23 12 55 1 64 -22 4 -10 6 -10 6 0 1 18
66 15 82 -4 8 -10 27 -15 58 -14 25 1 48 1 51 0 5 -3 16 -4 85 -16 22 -3 42
-10 45 -15 3 -4 14 -8 25 -9 89 -3 133 -3 152 2 13 4 26 1 33 -8 7 -7 16 -12
20 -9 5 3 11 2 13 -2 4 -7 114 -7 222 -1 17 1 48 -4 69 -10 23 -7 45 -8 55 -3
8 5 26 5 40 0 16 -6 35 -6 54 1 17 5 39 10 51 10 17 0 18 -2 6 -10 -9 -6 -10
-10 -3 -10 6 0 15 5 18 10 8 13 71 13 96 -1 14 -7 24 -7 32 0 7 5 43 9 80 8
37 -2 67 1 67 5 0 4 10 8 23 8 37 0 66 0 85 -1 37 -2 68 5 84 19 13 10 29 13
59 8 23 -4 46 -2 53 3 6 5 36 11 66 14 30 2 62 7 70 11 50 20 122 36 168 36
29 0 60 4 70 10 29 16 112 29 112 17 0 -5 9 -2 21 9 12 10 22 18 23 16 0 -2
14 1 29 7 15 6 31 10 35 9 7 -2 79 31 122 57 14 9 43 14 65 13 23 -1 46 1 51
5 6 3 26 9 44 12 33 6 99 37 130 61 8 6 35 14 60 18 32 5 57 17 84 40 41 37
151 74 183 62 9 -4 14 -4 10 0 -6 7 13 21 53 40 8 4 21 16 29 27 7 10 19 16
27 13 19 -7 73 13 110 41 17 12 36 23 42 23 7 0 21 9 32 20 11 11 20 15 20 9
0 -5 15 1 33 15 19 15 39 26 44 26 6 0 16 7 23 15 7 8 20 15 29 15 9 0 36 18
60 40 24 22 50 40 57 40 8 0 32 11 53 24 21 14 42 22 46 18 3 -4 14 4 24 16
16 22 40 38 86 61 11 5 38 25 60 45 23 20 55 38 76 41 24 4 50 20 75 46 22 21
46 39 55 39 8 0 34 16 56 35 22 19 43 32 46 29 2 -3 15 9 27 25 12 17 29 31
39 31 21 0 150 110 167 143 20 38 61 60 98 53 17 -3 25 -2 18 2 -9 7 -8 13 8
27 11 10 20 23 20 30 0 15 33 45 49 45 15 0 111 93 111 109 0 6 7 11 17 11 16
0 93 76 93 92 0 18 86 117 112 130 15 7 24 16 22 20 -3 4 6 12 20 18 14 5 26
16 26 25 0 19 78 135 92 135 18 0 69 59 80 92 6 18 23 44 38 58 32 29 90 119
136 208 18 35 46 78 62 97 17 18 33 47 36 65 2 18 14 39 25 47 12 8 21 22 21
32 0 11 7 21 15 25 8 3 15 17 15 31 0 27 15 58 43 87 9 10 17 29 17 43 0 14 4
25 10 25 5 0 15 20 21 45 6 25 15 42 20 39 5 -3 9 -2 8 3 -5 27 3 64 16 77 8
8 15 26 15 40 0 13 7 31 15 39 8 8 11 17 8 21 -4 3 -2 6 4 6 5 0 11 24 12 52
1 29 9 60 17 69 8 8 14 21 14 27 0 7 6 12 13 12 8 0 7 4 -3 10 -13 9 -11 13
10 30 20 16 22 22 11 29 -9 6 -10 10 -2 12 6 2 13 21 15 41 2 21 9 44 16 53 9
10 9 15 1 15 -14 0 -3 51 12 62 6 3 12 15 13 25 1 10 7 41 13 68 7 28 14 73
17 100 2 28 10 60 16 73 10 19 9 25 -1 32 -9 5 -12 17 -7 36 3 16 8 55 11 87
3 32 9 66 14 76 11 20 14 67 7 123 -4 28 -1 40 11 47 13 7 15 18 10 54 -4 26
-3 48 2 51 8 5 21 111 25 205 1 25 7 46 14 49 8 2 7 10 -4 27 -12 18 -13 32
-6 57 5 20 5 44 -1 61 -6 20 -6 32 2 40 14 14 15 40 1 32 -11 -7 -12 -4 -15
38 -1 19 3 27 14 27 14 0 14 2 1 11 -11 8 -12 12 -2 16 17 7 15 23 -4 23 -13
0 -15 6 -9 28 5 15 8 34 8 42 -1 30 -23 163 -30 173 -4 6 0 8 10 4 10 -3 17
-2 17 2 0 5 -4 11 -9 13 -5 2 -11 37 -15 78 -7 97 -15 130 -31 130 -15 0 -25
33 -18 60 3 11 12 20 20 20 11 0 10 7 -6 29 -17 24 -21 42 -19 95 2 47 -1 67
-10 71 -7 3 -10 10 -6 16 3 6 1 15 -7 19 -10 7 -10 11 0 24 11 13 9 21 -8 49
-11 19 -18 37 -15 40 9 8 -6 48 -16 42 -12 -7 -24 44 -21 90 1 22 -3 54 -10
70 -7 17 -11 36 -10 42 1 7 -5 25 -12 40 -8 16 -12 34 -10 41 3 6 0 12 -5 12
-9 0 -25 44 -27 75 -1 6 -7 28 -15 50 -8 22 -13 47 -12 56 2 9 -5 19 -14 23
-9 3 -14 13 -10 21 3 8 1 17 -4 20 -5 3 -7 12 -3 20 3 8 1 15 -3 15 -5 0 -15
15 -22 33 -8 17 -18 41 -22 52 -5 11 -12 36 -16 55 -8 43 -31 90 -44 90 -6 0
-10 8 -10 19 0 10 -6 24 -14 30 -8 7 -12 19 -10 29 3 10 -8 31 -26 50 -17 19
-28 38 -24 43 3 5 -2 12 -10 15 -9 3 -16 13 -16 21 0 8 -12 30 -26 48 -14 19
-23 39 -20 44 4 6 -3 27 -14 48 -11 21 -20 45 -20 53 -1 19 -34 60 -49 60 -7
0 -9 10 -5 25 4 18 2 25 -9 25 -8 0 -20 15 -27 33 -26 69 -41 95 -77 132 -12
13 -25 35 -29 49 -3 14 -10 26 -15 26 -13 0 -79 67 -79 80 0 5 5 10 11 10 6 0
3 7 -5 16 -9 8 -16 18 -16 22 0 13 -75 89 -95 96 -25 10 -85 13 -79 5 5 -9
-50 -19 -56 -10 -8 13 -38 8 -33 -5 5 -14 -33 -38 -47 -29 -6 3 -10 -1 -10 -9
0 -10 -9 -16 -21 -16 -16 0 -20 -5 -16 -20 3 -11 1 -23 -4 -26 -5 -3 -9 -22
-7 -42 1 -20 -2 -54 -6 -75 -8 -34 -6 -39 13 -44 25 -6 28 -20 4 -25 -14 -2
-10 -10 19 -39 20 -20 39 -50 43 -68 3 -17 11 -31 16 -31 6 0 16 -15 24 -33 8
-19 25 -45 39 -58 14 -13 26 -34 26 -46 0 -12 9 -27 19 -32 10 -6 24 -23 31
-38 6 -16 24 -50 40 -78 16 -27 33 -57 37 -65 4 -8 17 -24 30 -36 13 -12 23
-33 23 -46 0 -14 7 -31 15 -38 8 -7 15 -18 15 -25 0 -7 7 -15 15 -19 9 -3 15
-18 15 -34 0 -16 7 -35 16 -42 17 -15 44 -74 44 -97 0 -7 10 -27 21 -42 12
-16 19 -35 17 -42 -3 -8 1 -20 8 -27 8 -7 19 -32 26 -55 15 -53 36 -87 54 -87
8 0 14 -5 14 -11 0 -6 -7 -9 -15 -5 -10 4 -15 -1 -15 -15 0 -11 7 -22 15 -25
10 -4 15 -20 15 -45 0 -27 5 -42 16 -46 13 -5 13 -7 2 -14 -11 -7 -11 -9 1 -9
10 0 11 -3 2 -14 -9 -11 -7 -15 10 -19 16 -4 20 -11 16 -26 -3 -12 -1 -19 3
-16 8 5 14 -21 41 -165 6 -30 15 -63 20 -72 5 -10 9 -24 9 -32 0 -8 6 -21 13
-28 20 -20 39 -58 29 -58 -11 0 -7 -51 6 -76 20 -38 31 -108 20 -122 -8 -9 -8
-16 0 -24 15 -15 16 -65 1 -73 -7 -5 -5 -12 4 -23 9 -10 17 -35 18 -57 2 -22
8 -48 14 -58 7 -13 6 -20 -4 -26 -11 -7 -10 -11 5 -20 17 -9 17 -10 2 -11 -10
0 -18 -4 -18 -10 0 -5 4 -10 9 -10 14 0 22 -28 33 -110 15 -115 15 -115 -4
-114 -22 2 -24 -12 -3 -20 11 -4 14 -17 11 -48 -2 -24 0 -50 5 -60 5 -10 3
-31 -6 -57 -8 -23 -10 -41 -5 -41 6 0 10 -12 10 -27 0 -16 4 -35 10 -43 6 -9
5 -17 -3 -22 -9 -6 -8 -11 3 -18 13 -9 13 -11 0 -20 -10 -7 -11 -10 -2 -10 10
0 9 -7 -3 -30 -8 -16 -15 -38 -15 -49 0 -10 -5 -21 -10 -23 -7 -2 -5 -15 5
-36 16 -31 16 -34 -5 -69 -14 -24 -18 -39 -11 -41 6 -2 11 -19 11 -38 0 -26
-3 -32 -15 -28 -19 8 -19 -1 1 -31 20 -30 11 -80 -11 -71 -8 3 -15 1 -15 -4 0
-6 5 -10 10 -10 23 0 4 -82 -24 -102 -6 -4 -4 -13 3 -22 11 -13 11 -19 1 -31
-7 -8 -9 -15 -5 -15 5 0 0 -9 -10 -20 -11 -13 -14 -20 -6 -20 7 0 10 -8 7 -17
-3 -10 -7 -50 -10 -90 -3 -39 -10 -82 -15 -95 -20 -49 -24 -63 -22 -72 3 -14
-20 -66 -30 -66 -5 0 -9 -5 -9 -11 0 -5 5 -7 10 -4 22 13 8 -37 -16 -60 -25
-23 -25 -23 -3 -27 21 -3 21 -4 -7 -34 -16 -17 -28 -39 -26 -50 1 -10 -4 -30
-13 -44 -26 -45 -37 -74 -46 -119 -5 -24 -15 -49 -23 -55 -7 -6 -17 -31 -20
-56 -7 -50 -40 -122 -73 -159 -11 -13 -24 -44 -28 -68 -4 -30 -14 -48 -30 -59
-15 -10 -22 -21 -18 -31 4 -10 2 -14 -4 -10 -13 8 -48 -44 -58 -86 -4 -15 -13
-27 -21 -27 -9 0 -14 -12 -14 -34 0 -36 -53 -114 -77 -115 -7 -1 -13 -7 -13
-15 0 -8 -13 -28 -29 -45 -16 -17 -32 -42 -35 -56 -4 -14 -12 -25 -20 -25 -7
0 -19 -13 -26 -29 -6 -16 -18 -32 -26 -35 -8 -3 -14 -13 -14 -23 0 -9 -17 -33
-38 -52 -47 -45 -112 -125 -112 -138 0 -6 -18 -22 -40 -37 -22 -14 -40 -33
-40 -41 0 -8 -4 -15 -10 -15 -13 0 -120 -104 -120 -117 0 -6 -19 -22 -43 -37
-27 -17 -50 -43 -63 -69 -11 -23 -30 -46 -42 -52 -12 -5 -22 -13 -22 -18 0 -4
-4 -5 -10 -2 -5 3 -10 -1 -10 -9 0 -9 -13 -18 -35 -22 -20 -3 -40 -14 -45 -24
-5 -10 -27 -24 -48 -33 -25 -10 -44 -27 -57 -51 -11 -19 -31 -40 -45 -46 -47
-20 -85 -43 -93 -57 -4 -7 -12 -13 -18 -13 -5 0 -27 -18 -48 -40 -22 -23 -47
-40 -60 -40 -12 0 -35 -14 -51 -30 -16 -17 -44 -33 -61 -37 -17 -3 -40 -18
-52 -34 -11 -16 -29 -29 -38 -29 -28 0 -137 -68 -144 -89 -3 -12 -22 -23 -50
-30 -24 -6 -49 -17 -57 -24 -7 -7 -44 -28 -81 -47 -37 -18 -70 -37 -73 -42 -3
-4 -16 -8 -28 -8 -13 0 -34 -8 -47 -18 -25 -20 -132 -72 -146 -72 -5 0 -20 -8
-33 -17 -14 -10 -32 -19 -40 -20 -8 -1 -16 -7 -18 -12 -2 -6 -8 -11 -14 -11
-16 0 -98 -42 -98 -50 0 -4 -17 -10 -39 -14 -21 -3 -44 -12 -50 -20 -6 -8 -32
-17 -56 -21 -25 -3 -50 -14 -57 -24 -19 -25 -79 -50 -109 -44 -18 3 -35 -3
-56 -21 -21 -17 -33 -22 -40 -15 -8 8 -18 7 -34 -2 -13 -7 -31 -14 -40 -16 -9
-1 -29 -8 -45 -15 -16 -6 -33 -12 -39 -13 -39 -5 -76 -19 -91 -36 -9 -10 -24
-19 -33 -19 -9 0 -47 -7 -85 -17 -52 -12 -73 -14 -86 -5 -15 9 -23 7 -42 -7
-26 -21 -67 -36 -85 -33 -7 2 -13 -2 -13 -9 0 -16 -139 -6 -150 11 -5 9 -9 9
-14 1 -4 -6 -4 -11 1 -11 4 0 -2 -7 -14 -15 -23 -16 -80 -18 -100 -3 -6 5 -14
5 -17 -1 -4 -6 -13 -8 -21 -5 -8 3 -28 -1 -45 -9 -18 -9 -32 -12 -36 -6 -3 6
-12 5 -21 -2 -11 -10 -16 -10 -22 0 -6 10 -10 9 -15 -4 -5 -14 -15 -16 -48
-12 -22 3 -44 11 -49 18 -6 11 -9 10 -14 -1 -6 -17 -54 -23 -70 -10 -6 5 -29
9 -50 8 -286 -5 -680 15 -692 35 -3 6 -1 7 5 3 7 -4 12 -2 12 4 0 9 -47 4 -59
-6 -2 -2 -12 3 -22 12 -18 16 -42 18 -142 14 -47 -2 -61 2 -75 17 -9 11 -23
18 -29 16 -7 -3 -13 0 -13 5 0 8 -14 13 -80 29 -8 1 -25 4 -37 6 -13 2 -25 6
-29 10 -3 3 -19 3 -35 0 -19 -3 -37 1 -57 15 -17 13 -51 23 -85 26 -62 6 -125
32 -146 59 -7 10 -19 16 -27 13 -7 -3 -16 -1 -20 5 -3 6 -12 8 -19 5 -7 -2
-21 2 -32 9 -10 8 -27 15 -39 15 -11 0 -29 9 -39 20 -10 11 -23 19 -29 18 -6
0 -24 4 -39 10 -16 7 -35 12 -43 12 -8 0 -14 5 -14 11 0 6 -8 9 -17 7 -10 -2
-51 20 -92 49 -72 52 -84 57 -127 54 -12 -1 -35 9 -52 23 -16 15 -34 26 -40
26 -6 0 -31 20 -56 44 -40 40 -116 84 -155 90 -13 2 -59 40 -121 98 -16 16
-32 28 -36 28 -3 0 -29 18 -57 40 -27 22 -60 43 -73 46 -12 3 -25 12 -28 19
-3 8 -23 26 -46 40 -22 14 -46 37 -52 50 -6 14 -17 25 -25 25 -7 0 -13 4 -13
9 0 10 -39 27 -52 23 -5 -1 -8 2 -8 6 0 13 -75 92 -87 92 -5 0 -18 17 -29 38
-12 22 -34 44 -57 55 -20 10 -38 25 -38 33 -3 33 -6 39 -16 37 -6 -1 -14 9
-17 22 -4 14 -13 25 -22 25 -20 0 -44 24 -44 44 0 9 -6 16 -12 16 -7 0 -22 19
-33 42 -11 23 -25 46 -30 52 -6 6 -24 29 -40 51 -37 50 -65 79 -71 72 -10 -9
-43 31 -42 50 1 22 -68 139 -92 156 -9 7 -27 31 -39 55 -13 25 -26 40 -33 36
-7 -5 -9 1 -5 18 6 23 -8 53 -40 86 -7 7 -13 19 -13 27 0 7 -9 15 -20 18 -14
3 -20 14 -21 34 -2 34 -1 34 -18 108 -14 63 -40 125 -53 125 -12 0 -41 61 -48
100 -4 22 -11 34 -20 32 -10 -2 -11 0 -3 10 10 11 -9 91 -45 188 -7 19 -7 19
-16 60 -13 58 -42 138 -55 153 -6 8 -8 17 -3 19 6 2 5 13 -1 28 -5 14 -12 34
-14 45 -2 11 -9 33 -15 50 -7 16 -11 40 -10 51 2 13 -4 24 -14 28 -14 5 -15
15 -10 55 4 28 2 52 -3 55 -5 3 -7 15 -4 26 3 11 -2 36 -12 56 -9 19 -17 55
-18 80 -1 24 -6 44 -10 44 -5 0 -5 5 -2 10 4 6 3 16 -2 23 -5 7 -10 43 -11 81
-1 38 -6 74 -12 81 -10 12 -10 41 1 60 10 16 2 125 -10 138 -6 8 -10 60 -9
128 1 147 -8 360 -16 379 -3 8 -4 65 0 125 3 61 6 129 6 153 0 29 5 42 14 42
16 0 19 26 4 35 -6 4 -8 10 -5 15 5 8 11 69 20 205 6 94 18 180 26 191 5 6 9
26 10 45 1 19 9 58 17 88 8 30 14 74 14 99 -1 24 6 72 14 105 9 34 17 73 19
87 1 14 10 45 19 69 9 24 14 46 12 50 -6 9 15 91 23 91 3 0 7 11 7 25 2 26 19
47 47 58 9 3 16 12 15 19 -2 8 10 14 30 16 31 3 33 6 27 29 -7 29 9 53 37 53
26 0 12 20 -15 21 -18 1 -19 2 -4 6 21 5 18 28 -4 28 -7 0 -15 9 -17 20 -7 35
-34 65 -58 65 -12 0 -26 -4 -29 -10 -3 -5 -19 -10 -36 -10 -16 0 -29 -4 -29
-10 0 -5 -10 -14 -21 -21 -15 -8 -19 -8 -15 0 4 6 2 11 -3 11 -6 0 -11 7 -11
15 0 8 -4 15 -10 15 -5 0 -10 -7 -10 -15 0 -8 5 -15 10 -15 6 0 10 -4 10 -10
0 -5 -7 -10 -15 -10 -9 0 -27 -7 -41 -16 -13 -9 -27 -14 -31 -10 -3 3 -1 6 5
6 7 0 12 6 12 14 0 8 6 16 12 18 10 4 10 10 1 31 -11 23 -10 28 7 37 15 8 19
6 22 -8 3 -14 6 -13 17 6 11 21 10 26 -8 43 -12 11 -21 26 -21 34 0 19 -8 19
-25 1 -8 -7 -11 -17 -7 -21 4 -5 1 -5 -6 0 -8 4 -12 15 -9 25 3 11 -2 20 -12
24 -39 13 -91 56 -91 76 0 11 11 16 42 16 31 1 46 7 56 23 8 11 23 21 33 21
11 0 19 5 19 11 0 6 10 10 23 9 12 -1 24 -1 27 0 8 3 31 9 83 22 26 7 47 16
47 20 0 5 9 8 19 8 11 0 22 4 25 9 3 5 30 15 58 21 29 7 64 17 78 23 41 17 63
18 72 5 6 -10 8 -9 8 3 0 30 38 53 93 55 29 1 63 6 77 10 14 4 27 6 29 5 2 -2
7 3 11 9 4 7 31 14 60 16 29 2 60 10 70 19 9 8 29 15 45 15 15 0 33 8 40 17 8
11 25 16 49 15 21 -1 50 7 69 18 18 12 50 20 75 20 23 0 42 4 42 10 0 5 7 7
15 4 8 -4 15 -1 15 5 0 6 7 11 15 11 8 0 15 -4 15 -10 0 -5 7 -7 15 -4 8 4 22
1 30 -6 13 -11 14 -10 9 4 -4 12 -1 16 14 16 12 0 24 5 27 10 3 6 14 10 24 10
10 0 24 6 30 14 8 9 30 14 59 14 53 0 200 39 226 61 19 16 56 23 104 22 19 -1
39 2 45 6 7 4 14 8 17 8 57 9 89 19 94 30 3 8 21 17 40 21 20 3 36 10 36 14 0
5 14 8 31 8 17 -1 34 3 37 8 10 13 42 14 42 2 0 -6 6 -6 14 1 8 6 18 11 22 9
15 -4 88 13 101 24 7 5 17 7 22 4 5 -4 13 -1 16 5 4 5 13 8 20 5 7 -2 21 4 31
15 14 16 27 19 60 15 23 -2 45 -1 49 2 7 7 12 8 40 11 8 0 23 11 34 22 16 18
27 21 58 16 26 -4 48 -1 68 9 54 28 118 46 149 41 28 -4 50 3 123 36 11 5 26
7 31 3 12 -7 113 12 127 25 5 5 18 9 28 9 10 0 27 10 37 22 16 20 27 22 86 21
46 -1 77 3 92 13 12 8 27 12 33 9 5 -4 17 -1 26 6 9 8 44 14 89 14 60 1 76 5
87 19 11 15 30 19 94 21 51 2 90 9 105 18 30 20 143 33 152 18 4 -6 13 -8 19
-4 6 4 26 8 45 10 19 2 44 10 57 19 16 11 29 12 48 5 17 -7 27 -7 29 0 2 5 31
11 65 12 34 1 59 6 56 11 -3 5 6 7 21 4 14 -3 29 -1 32 3 3 5 14 5 24 -1 13
-7 20 -6 24 3 5 9 7 9 12 0 8 -17 24 -16 24 1 0 14 96 29 115 18 16 -10 79 -9
92 1 7 5 28 9 48 10 19 1 35 4 35 8 0 4 17 6 37 4 21 -1 53 2 72 7 24 7 36 6
41 -2 6 -9 10 -8 17 5 6 10 13 13 16 8 3 -5 34 -8 69 -5 35 2 73 4 86 4 12 0
22 4 22 8 0 4 11 5 25 2 15 -2 25 0 25 7 0 7 4 9 10 6 5 -3 17 -2 26 3 9 5 32
6 52 1 20 -4 40 -5 46 -2 14 9 55 16 99 16 20 0 37 4 37 8 0 5 37 8 83 7 45 0
102 1 127 4 25 3 53 2 62 -3 10 -6 19 -5 23 1 3 5 18 7 33 4 16 -3 55 0 88 6
60 12 113 14 149 4 16 -4 17 -3 5 5 -13 9 -13 11 0 15 21 8 213 2 227 -7 6 -4
13 -2 15 5 5 15 71 20 103 8 16 -6 25 -5 28 3 3 9 10 9 31 -1 21 -9 32 -10 42
-1 7 6 22 8 34 4 11 -3 36 -1 56 5 29 10 41 10 60 -1 20 -10 29 -10 50 1 21
12 27 12 34 1 5 -9 17 -11 35 -7 24 6 27 4 21 -11 -6 -16 -5 -17 7 -1 10 12
17 14 32 6 15 -9 17 -8 12 6 -6 14 -3 15 27 2 23 -9 37 -11 44 -4 6 6 12 6 16
-1 10 -16 26 -13 26 4 0 18 46 21 53 3 4 -9 6 -9 6 -2 1 8 21 10 64 7 68 -6
66 -6 117 0 24 2 39 -2 47 -12 11 -15 12 -15 13 0 0 9 8 17 18 18 34 5 85 2
101 -5 29 -13 45 -13 53 -1 5 8 8 6 8 -7 0 -13 4 -16 18 -11 9 4 24 9 32 10 8
1 27 7 41 13 27 11 69 6 69 -8 0 -14 41 -19 46 -6 8 21 190 13 215 -9 10 -10
19 -13 19 -8 0 19 49 24 79 9 21 -11 37 -13 60 -6 26 7 33 5 42 -12 6 -11 13
-17 16 -14 3 3 0 12 -6 20 -10 12 -8 16 11 22 13 4 23 5 24 3 0 -2 8 2 17 9
12 10 33 12 80 7 90 -10 91 -11 76 -81 -7 -33 -16 -67 -21 -77 -6 -12 -5 -23
2 -32 8 -10 8 -15 -1 -20 -19 -12 7 -191 33 -219 4 -6 8 -18 8 -28 0 -10 5
-18 11 -18 6 0 9 -9 6 -20 -5 -21 12 -70 26 -70 4 0 7 -9 7 -21 0 -13 8 -23
20 -26 12 -3 19 -12 18 -22 -2 -13 6 -16 42 -17 25 0 52 -4 61 -8 16 -7 98 33
120 60 24 30 5 265 -21 249 -4 -3 -10 7 -13 20 -2 14 0 28 5 31 5 3 6 23 3 45
-8 43 11 147 30 169 7 8 16 25 20 38 3 12 10 20 14 17 5 -2 16 4 26 15 10 11
15 20 11 20 -18 0 23 28 57 39 20 7 39 17 42 22 4 5 17 9 31 9 29 0 74 27 74
44 0 15 78 66 105 68 32 2 38 3 77 17 20 6 65 12 100 12 35 1 80 6 101 12 42
12 104 3 261 -39 94 -25 122 -39 168 -86 16 -16 44 -36 62 -43 18 -8 41 -27
51 -42 21 -32 88 -98 121 -119 13 -9 20 -22 18 -32 -5 -17 38 -72 56 -72 6 0
6 -9 0 -25 -6 -15 -6 -26 0 -30 6 -4 10 -15 10 -26 0 -11 10 -45 23 -77 20
-49 23 -72 22 -167 -1 -60 -6 -146 -10 -190 -4 -44 -9 -89 -10 -100 -4 -42
-18 -75 -32 -75 -12 0 -13 -3 -4 -14 7 -9 8 -17 2 -20 -5 -3 -16 -27 -25 -53
-13 -37 -13 -48 -4 -55 9 -5 8 -8 -4 -8 -11 0 -18 -8 -18 -20 0 -11 -7 -23
-15 -26 -9 -4 -15 -19 -15 -35 0 -18 -15 -48 -40 -81 -22 -29 -43 -68 -46 -86
-4 -19 -16 -42 -27 -52 -11 -11 -25 -29 -31 -42 -6 -13 -18 -23 -26 -23 -8 0
-14 -8 -12 -16 1 -9 -5 -22 -13 -29 -8 -7 -15 -20 -15 -29 -1 -9 -14 -27 -30
-41 -17 -13 -30 -28 -30 -32 0 -5 -20 -29 -45 -54 -25 -24 -45 -49 -45 -53 0
-5 -16 -19 -34 -31 -19 -11 -38 -30 -41 -40 -4 -11 -11 -20 -17 -20 -17 0
-115 -83 -127 -107 -7 -15 -19 -23 -35 -23 -14 0 -41 -9 -61 -20 -20 -11 -42
-20 -51 -20 -8 0 -13 -4 -10 -9 3 -4 -5 -6 -17 -4 -39 8 -59 -27 -55 -91 3
-33 0 -57 -6 -60 -8 -3 -8 -7 0 -13 12 -9 28 -44 26 -55 -1 -5 4 -8 12 -8 8 0
22 -9 30 -21 8 -12 19 -18 26 -14 7 4 22 3 33 -3 52 -24 86 -30 152 -27 39 1
70 4 70 5 0 1 8 3 18 5 10 2 26 7 35 11 9 4 21 8 25 8 5 1 14 9 21 18 7 9 25
20 40 24 15 4 43 22 62 40 18 19 37 34 42 34 15 0 102 83 102 97 0 7 12 18 26
23 18 7 24 15 20 26 -4 11 -2 15 8 11 10 -4 19 4 28 23 7 16 23 34 35 41 13 7
23 18 23 25 0 6 7 14 15 18 8 3 15 12 15 19 0 8 7 20 15 27 8 7 15 22 15 34 0
19 69 112 104 141 7 6 22 31 35 58 13 26 27 47 32 47 6 0 8 4 4 9 -3 5 -1 12
5 16 6 4 8 11 4 16 -3 6 1 18 9 27 9 9 18 29 22 44 4 15 13 32 21 39 8 6 14
18 14 25 0 8 7 14 15 14 9 0 15 9 15 24 0 13 6 26 14 29 7 3 16 23 20 44 3 21
15 90 27 153 11 63 22 130 23 149 2 18 8 36 13 40 18 11 33 49 27 65 -3 9 -3
24 2 34 4 9 8 40 10 67 9 226 8 235 -9 256 -11 12 -15 28 -11 43 3 14 1 27 -6
31 -9 6 -9 9 1 15 9 6 9 12 -4 25 -21 21 -21 34 -1 42 11 4 13 14 9 37 -10 47
-28 96 -36 96 -20 0 -39 35 -39 71 0 28 -4 39 -15 39 -18 0 -20 17 -4 22 13 4
-1 34 -38 81 -13 16 -23 35 -23 42 0 8 -13 22 -30 32 -16 9 -30 20 -30 23 0
13 -42 50 -51 45 -5 -4 -9 2 -9 13 0 17 -48 72 -63 72 -4 0 -23 15 -41 33 -71
67 -111 93 -183 118 -40 14 -70 29 -66 32 3 4 -8 10 -25 13 -18 4 -32 10 -32
15 0 5 -10 9 -22 9 -13 0 -35 6 -49 14 -14 7 -53 17 -85 21 -32 5 -61 9 -64
10 -87 23 -379 22 -464 -2 -17 -5 -18 -1 -14 40 4 29 1 48 -6 51 -7 3 -6 9 4
18 16 14 18 113 4 171 -3 15 -2 27 2 27 5 0 9 24 9 53 0 28 4 56 10 60 7 6 6
10 -2 14 -7 2 -13 11 -13 19 0 8 -4 14 -10 14 -16 0 -11 30 6 37 11 4 12 8 4
13 -9 5 -9 13 -2 27 8 15 8 24 -1 33 -7 8 -7 10 -1 7 7 -4 11 4 10 23 -1 17
-3 30 -6 30 -3 0 -5 41 -5 90 0 73 3 89 14 85 10 -4 11 -2 3 7 -14 17 -18 152
-6 190 4 13 1 16 -10 12 -13 -5 -15 0 -9 27 3 19 10 35 14 37 5 2 2 10 -6 19
-17 16 -20 33 -6 33 5 0 7 89 5 203 -5 223 -7 264 -18 290 -6 11 -4 17 5 17
11 0 11 2 2 8 -7 5 -15 21 -17 38 -2 16 -7 43 -11 59 -5 23 -1 35 15 53 14 15
17 22 7 22 -7 0 -14 6 -14 13 -1 27 -13 69 -22 81 -6 6 -10 21 -10 31 1 64
-15 191 -24 197 -7 4 -8 8 -3 8 5 0 4 6 -2 13 -5 6 -13 32 -17 57 -4 24 -11
52 -16 62 -5 10 -13 27 -19 38 -5 11 -10 26 -10 33 0 27 -41 97 -70 119 -17
12 -30 27 -30 34 0 21 -34 77 -62 103 -16 14 -28 31 -28 39 0 7 -8 16 -17 19
-9 4 -25 14 -35 22 -10 9 -26 23 -36 31 -23 20 -94 55 -106 52 -4 -2 -14 3
-22 9 -8 6 -14 8 -14 4 0 -4 -7 -2 -15 5 -8 6 -19 9 -25 5 -6 -3 -23 0 -38 7
-18 10 -38 12 -57 6 -16 -4 -32 -3 -35 2 -9 15 -61 31 -80 25 -10 -3 -21 -2
-24 3 -3 5 -30 7 -60 5 -38 -3 -65 1 -87 12 -22 12 -35 13 -42 6 -7 -7 -16 -7
-29 0 -13 7 -27 6 -48 -5 -17 -8 -30 -11 -30 -6 0 8 -44 6 -72 -4 -40 -14 -47
-14 -52 -3 -3 9 -6 9 -13 0 -5 -8 -14 -9 -23 -3 -9 5 -19 5 -26 -1 -7 -5 -40
-12 -75 -15 -79 -6 -120 -10 -184 -19 -48 -7 -51 -6 -63 19 -9 20 -9 33 -1 49
9 19 7 18 -10 -3 l-20 -25 -10 25 c-8 21 -10 22 -11 5 0 -18 -2 -18 -20 5
l-19 25 6 -25 c3 -14 2 -22 -2 -18 -4 4 -8 21 -7 38 0 21 -4 30 -15 30 -13 0
-13 3 -3 15 7 9 10 18 6 22 -3 3 -6 1 -6 -5 0 -6 -7 -9 -15 -6 -8 4 -15 18
-15 33 0 15 -13 52 -29 82 -16 31 -32 79 -36 107 -4 29 -11 52 -17 52 -5 0 -7
4 -4 9 3 5 -1 11 -9 14 -8 4 -23 25 -34 48 l-20 41 29 30 c32 32 31 50 -3 47
-54 -4 -57 -1 -57 45 0 35 4 45 20 49 11 3 20 12 20 21 0 20 -14 21 -30 1 -11
-13 -15 -12 -36 8 -13 12 -23 31 -23 42 1 17 2 17 6 3 9 -35 21 -17 21 32 0
47 -6 59 -22 43 -12 -12 -45 -10 -50 3 -3 9 1 11 12 7 15 -6 16 -5 2 12 -8 10
-14 21 -12 24 1 3 -4 6 -10 6 -7 0 -18 14 -23 32 -6 17 -18 40 -28 51 -10 11
-15 26 -11 36 4 10 1 16 -7 16 -10 0 -10 3 -1 12 19 19 14 28 -18 40 -28 9
-30 13 -24 44 7 37 -10 48 -21 14 -11 -33 -21 -23 -22 22 -1 26 -7 46 -17 53
-9 7 -16 16 -16 21 0 5 -9 15 -20 22 -11 7 -20 21 -20 32 0 11 -9 29 -20 40
-27 27 -42 68 -35 91 4 11 2 19 -3 19 -5 0 -12 9 -15 21 -4 16 -11 19 -26 14
-12 -4 -21 -2 -21 4 0 6 -16 26 -35 45 -19 20 -35 40 -35 46 0 5 -4 10 -9 10
-21 0 -101 88 -101 111 0 19 -2 21 -10 9 -5 -8 -10 -10 -10 -5 0 15 -74 95
-88 95 -6 0 -12 4 -12 8 0 4 -16 25 -35 46 -19 21 -35 45 -35 52 0 8 -5 14
-10 14 -6 0 -32 21 -58 48 -64 63 -133 122 -144 122 -4 0 -16 8 -26 18 -43 40
-69 58 -79 55 -17 -6 -71 25 -83 47 -6 11 -18 20 -28 20 -9 0 -30 14 -45 30
-21 22 -38 30 -63 30 -27 0 -36 6 -49 31 -10 18 -22 29 -30 25 -7 -2 -16 2
-19 10 -3 8 -12 14 -19 14 -8 0 -24 9 -37 20 -13 11 -40 23 -61 26 -21 4 -47
17 -59 29 -12 13 -28 21 -36 18 -7 -3 -28 2 -45 11 -18 9 -42 16 -53 16 -12 0
-30 7 -40 15 -11 8 -28 15 -37 15 -10 0 -31 12 -48 26 -17 14 -35 23 -40 20
-5 -4 -13 -1 -16 5 -4 6 -18 8 -32 4 -14 -3 -31 -1 -40 6 -8 7 -25 14 -38 15
-13 1 -40 10 -59 19 -20 10 -43 14 -52 11 -9 -4 -22 2 -32 14 -11 13 -33 22
-57 24 -23 2 -63 12 -91 21 -34 11 -57 13 -74 7 -25 -9 -100 4 -100 18 0 4
-10 8 -22 8 -13 0 -54 7 -93 16 -38 8 -93 16 -121 16 -28 0 -67 7 -87 15 -19
8 -37 12 -39 9 -7 -7 -162 17 -174 27 -6 5 -23 5 -42 0 -17 -5 -39 -8 -49 -5
-10 2 -36 5 -58 7 -22 2 -46 6 -53 11 -7 4 -12 2 -12 -5 0 -8 -11 -9 -37 -4
-21 4 -42 8 -48 9 -5 1 -16 5 -22 9 -7 4 -21 3 -32 -2 -10 -6 -50 -10 -87 -9
-38 1 -96 -1 -129 -5 -44 -5 -65 -3 -82 8 -12 8 -24 15 -25 14 -2 0 -14 -5
-28 -10z m3210 -2629 c8 -5 33 -5 55 -1 22 4 72 4 109 0 56 -5 73 -11 87 -30
10 -13 15 -27 13 -31 -3 -4 -2 -14 3 -20 16 -27 26 -108 12 -108 -6 0 -19 -10
-28 -22 -13 -15 -35 -24 -72 -29 -30 -4 -64 -9 -76 -12 -13 -3 -25 -3 -27 1
-5 8 -38 8 -171 -3 -49 -4 -101 -6 -115 -5 -35 3 -45 2 -130 -10 -41 -6 -88
-12 -105 -14 -78 -9 -133 -18 -163 -26 -19 -5 -40 -6 -47 -4 -7 3 -22 1 -32
-4 -10 -6 -45 -13 -78 -17 -33 -3 -69 -9 -80 -12 -11 -3 -40 -7 -65 -8 -44 -2
-190 -28 -220 -39 -8 -3 -46 -8 -85 -11 -38 -2 -92 -9 -120 -15 -27 -5 -77
-14 -110 -20 -72 -11 -80 -13 -125 -27 -19 -6 -70 -14 -113 -17 -43 -3 -95
-10 -115 -15 -59 -16 -192 -39 -256 -46 -33 -3 -64 -9 -70 -14 -13 -10 -103
-25 -133 -22 -12 1 -36 -5 -53 -14 -18 -9 -39 -18 -48 -19 -10 -2 -35 -7 -57
-11 -22 -4 -55 -9 -74 -11 -42 -4 -135 -22 -176 -34 -16 -5 -70 -16 -120 -25
-49 -9 -108 -22 -130 -30 -22 -8 -58 -16 -80 -19 -70 -8 -99 -14 -128 -25 -16
-6 -42 -11 -58 -11 -16 0 -46 -8 -67 -19 -37 -18 -91 -32 -148 -36 -17 -1 -45
-9 -64 -18 -18 -10 -46 -17 -63 -17 -16 0 -59 -9 -96 -21 -36 -11 -88 -27
-116 -35 -27 -8 -66 -21 -85 -28 -34 -13 -109 -30 -180 -42 -19 -3 -57 -16
-85 -28 -27 -13 -81 -31 -120 -41 -38 -10 -74 -21 -80 -25 -5 -4 -30 -11 -55
-15 -25 -4 -49 -11 -55 -15 -5 -4 -30 -11 -55 -15 -25 -4 -56 -13 -70 -20 -14
-7 -44 -16 -65 -20 -22 -3 -56 -12 -75 -20 -19 -7 -53 -18 -75 -23 -100 -26
-140 -37 -145 -37 -3 0 -24 -7 -45 -16 -70 -28 -104 -37 -124 -32 -10 2 -37
-4 -60 -15 -23 -11 -60 -23 -83 -27 -23 -4 -66 -16 -97 -26 -30 -11 -63 -19
-73 -19 -11 0 -47 -11 -81 -24 -34 -13 -91 -31 -127 -41 -114 -32 -383 -116
-415 -130 -16 -7 -52 -21 -80 -30 -27 -9 -54 -20 -60 -25 -5 -4 -30 -13 -55
-20 -25 -6 -50 -18 -56 -26 -14 -18 -51 -26 -59 -13 -4 5 -11 9 -16 9 -6 0 -7
-5 -3 -12 4 -7 3 -8 -4 -4 -16 10 -52 90 -52 115 0 12 5 21 10 21 6 0 10 6 10
13 0 12 62 57 79 57 6 0 31 11 57 25 26 14 57 25 70 25 13 0 25 4 29 9 11 19
114 61 271 111 87 28 177 60 199 71 22 10 51 19 65 19 14 0 43 9 65 20 22 11
51 20 66 20 15 0 45 7 68 15 23 8 43 14 46 14 3 1 21 8 41 16 20 8 44 15 54
15 10 0 38 9 64 21 25 11 50 18 54 15 10 -6 160 37 201 58 17 9 36 14 42 11 5
-4 21 0 34 9 13 9 32 16 41 16 9 0 37 7 63 15 77 24 186 56 201 59 8 1 29 10
47 19 18 9 43 17 57 17 14 0 27 4 30 8 3 5 31 14 63 21 32 8 70 20 85 27 15 8
38 14 50 14 13 0 40 8 61 19 20 10 58 22 84 26 27 4 64 14 83 22 19 9 60 21
90 28 30 7 75 20 100 28 25 9 74 23 110 32 85 20 89 21 130 38 19 8 59 17 89
21 29 4 64 14 76 22 13 8 29 14 37 13 13 -3 124 20 223 46 186 48 224 57 261
59 23 1 53 10 68 19 14 10 54 19 92 22 37 3 72 9 78 14 12 9 59 20 116 26 19
3 53 9 75 16 22 6 56 13 75 16 19 3 40 9 46 14 6 5 22 9 35 9 36 -1 145 17
158 24 6 4 30 7 54 8 23 0 51 5 62 11 33 17 86 28 154 32 34 3 69 9 76 15 7 6
52 13 100 15 47 3 96 10 108 17 12 6 51 15 87 19 36 4 81 10 100 14 19 3 76
13 125 21 50 8 101 18 115 21 14 3 49 7 79 9 30 2 92 12 137 24 45 11 93 20
106 20 43 0 113 12 125 22 6 5 38 11 70 14 70 6 118 12 118 14 0 1 40 4 89 6
48 2 107 9 130 15 22 6 64 10 91 10 28 -1 56 2 63 7 16 11 113 12 132 2z
m1306 -1035 c14 -14 24 -31 21 -38 -2 -6 2 -18 10 -25 16 -17 17 -66 0 -114
-13 -36 -58 -88 -77 -88 -5 0 -12 -11 -16 -24 -3 -13 -16 -29 -29 -36 -12 -7
-36 -30 -51 -52 -16 -22 -38 -47 -48 -57 -36 -30 -51 -48 -68 -77 -28 -47 -39
-61 -110 -135 -37 -39 -71 -76 -75 -83 -5 -7 -21 -19 -38 -27 -27 -13 -30 -19
-29 -59 3 -69 3 -72 14 -65 6 3 7 -1 4 -10 -4 -9 -1 -35 5 -58 12 -47 20 -94
26 -147 6 -48 9 -63 18 -77 5 -8 3 -13 -5 -13 -10 0 -10 -2 -1 -8 8 -5 15 -46
19 -113 3 -57 7 -110 9 -117 3 -7 0 -23 -5 -37 -6 -15 -6 -26 1 -30 11 -8 3
-93 -11 -111 -6 -6 -8 -18 -5 -26 6 -14 -33 -68 -50 -68 -4 0 -17 -7 -27 -17
-14 -13 -18 -13 -18 -2 0 12 -2 12 -9 0 -7 -12 -13 -12 -24 -3 -7 7 -17 8 -21
4 -4 -4 -7 -2 -6 3 5 24 -1 46 -19 64 -10 10 -21 31 -25 47 -13 58 -28 221
-27 293 0 40 -4 82 -10 93 -6 11 -14 67 -19 126 -11 151 -22 197 -48 207 -9 3
-37 9 -62 12 -24 3 -63 15 -85 26 -37 19 -146 104 -171 134 -6 7 -16 13 -22
13 -14 0 -152 136 -152 150 0 5 -4 10 -10 10 -5 0 -10 6 -10 14 0 7 -16 26
-35 40 -51 39 -78 66 -105 106 -29 42 -49 67 -72 91 -9 9 -14 20 -11 23 4 3 1
6 -6 6 -8 0 -11 8 -8 20 3 11 2 20 -3 20 -4 0 -7 25 -6 56 1 40 6 60 19 68 9
7 14 16 10 19 -3 4 3 7 15 7 11 0 28 7 37 17 14 14 18 14 26 2 5 -8 9 -9 9 -2
0 6 14 -2 30 -17 17 -15 30 -33 30 -39 0 -7 6 -14 14 -17 8 -3 17 -16 20 -28
3 -13 17 -31 31 -40 14 -9 39 -33 57 -53 18 -19 54 -56 81 -81 26 -25 47 -50
47 -55 0 -14 146 -154 179 -171 16 -9 46 -32 67 -51 31 -29 44 -35 73 -33 30
3 36 7 44 38 11 43 41 73 90 91 20 7 37 16 37 19 0 11 75 87 98 99 12 6 28 26
36 44 7 18 26 44 42 58 16 13 42 42 58 64 17 22 48 58 70 80 23 23 48 50 56
61 8 12 29 28 45 37 17 9 44 27 60 41 40 34 88 34 121 1z m-2608 -136 c13 -5
35 -9 50 -9 15 0 40 -7 56 -15 15 -8 39 -15 53 -15 13 0 42 -9 64 -19 21 -11
58 -22 82 -26 41 -7 62 -15 122 -48 17 -9 46 -24 65 -33 150 -70 179 -84 185
-95 4 -6 31 -21 59 -34 56 -25 156 -116 156 -142 0 -9 9 -26 20 -38 11 -12 23
-33 26 -46 16 -63 -2 -219 -26 -227 -6 -2 -22 -21 -35 -42 -16 -25 -42 -47
-79 -65 -30 -15 -62 -38 -71 -51 -14 -22 -49 -42 -81 -48 -7 -1 -19 -8 -27
-14 -9 -7 -26 -13 -39 -14 -13 0 -39 -8 -58 -16 -49 -23 -201 -65 -275 -76
-11 -2 -48 -11 -81 -20 -60 -16 -99 -13 -180 10 -21 5 -22 3 -18 -48 3 -29 6
-114 8 -188 2 -74 5 -135 6 -135 5 0 10 -51 9 -85 0 -19 0 -41 0 -47 1 -7 1
-21 0 -30 0 -10 -1 -49 -2 -88 -2 -74 -9 -95 -33 -95 -8 0 -14 -4 -14 -9 0 -5
-20 -11 -45 -13 -36 -2 -46 0 -51 15 -3 9 -9 15 -14 12 -5 -3 -12 11 -16 31
-3 19 -16 44 -27 55 -19 17 -19 19 -3 19 15 0 16 3 7 14 -6 7 -11 27 -10 42 1
16 -2 74 -6 129 -8 122 -12 179 -19 315 -5 90 -11 145 -16 145 -2 0 -13 150
-13 183 0 17 -4 32 -9 32 -5 0 -4 9 2 19 9 18 8 79 -4 140 -12 65 -26 286 -26
436 -1 41 32 191 43 203 8 7 26 15 41 15 14 1 26 5 26 10 0 4 9 7 19 7 11 0
23 5 26 10 7 12 113 4 153 -11z m-1438 -339 c67 4 265 -2 274 -8 10 -6 26 -8
91 -12 11 -1 41 -6 67 -11 25 -6 57 -12 70 -14 12 -1 43 -11 68 -22 25 -11 62
-23 83 -27 20 -4 37 -11 37 -16 0 -6 4 -10 10 -10 18 0 48 -33 43 -47 -4 -9 0
-13 10 -11 9 2 15 0 14 -3 -1 -4 7 -16 17 -28 11 -12 16 -24 13 -28 -4 -3 0
-16 8 -29 8 -12 17 -51 20 -86 6 -63 6 -63 -44 -140 -28 -43 -51 -81 -51 -86
0 -5 -11 -19 -25 -32 -14 -13 -25 -28 -25 -35 0 -11 -14 -23 -67 -55 -20 -12
-33 -28 -33 -40 0 -13 -10 -25 -27 -32 -16 -7 -52 -36 -81 -65 -29 -29 -59
-53 -68 -53 -8 0 -27 -13 -42 -29 -48 -53 -184 -83 -241 -55 -36 18 -56 51
-65 109 -6 33 -3 46 14 68 12 15 31 27 42 27 19 0 80 36 86 52 2 4 10 8 17 8
8 0 20 8 27 19 16 22 104 91 118 91 5 0 17 12 27 28 10 15 27 34 38 42 40 29
91 89 117 138 l28 51 -22 16 c-13 8 -35 15 -51 15 -15 0 -41 6 -56 14 -15 8
-41 14 -57 14 -17 -1 -46 4 -66 11 -20 7 -86 13 -147 15 -69 1 -115 7 -124 15
-11 8 -17 9 -22 1 -4 -7 -37 -9 -96 -6 -49 3 -95 3 -103 0 -14 -5 -10 -64 5
-64 5 0 9 -15 9 -33 0 -19 3 -37 8 -41 4 -4 7 -11 7 -14 1 -4 8 -21 17 -37 14
-26 29 -83 33 -120 1 -10 17 -47 60 -136 12 -25 28 -70 36 -100 7 -30 17 -57
22 -60 6 -4 10 -15 11 -25 5 -44 19 -94 27 -94 5 0 9 -13 9 -29 0 -17 5 -33
10 -36 6 -3 10 -15 10 -25 0 -10 10 -40 22 -67 12 -26 23 -56 24 -67 1 -10 6
-21 11 -25 6 -3 9 -14 8 -23 -2 -9 3 -28 10 -41 7 -14 16 -41 20 -59 4 -18 11
-37 14 -43 4 -5 15 -32 25 -60 10 -27 21 -59 26 -70 20 -48 40 -121 40 -147 0
-17 4 -27 10 -23 14 9 12 -18 -2 -37 -7 -9 -22 -18 -33 -20 -11 -2 -24 -7 -28
-13 -6 -6 -10 -6 -14 3 -2 6 -17 12 -31 12 -35 0 -45 8 -65 52 -10 20 -22 40
-27 43 -6 4 -8 10 -5 15 3 4 -9 37 -25 74 -17 36 -30 70 -30 76 0 6 -15 45
-34 88 -47 109 -93 230 -106 279 -6 23 -17 54 -25 70 -8 15 -15 34 -15 41 0 6
-4 12 -9 12 -5 0 -12 20 -16 45 -3 25 -10 43 -15 40 -5 -3 -8 7 -8 22 0 16
-11 48 -26 73 -14 25 -26 58 -26 73 0 15 -7 30 -15 33 -9 4 -14 11 -13 18 1 6
-8 31 -20 55 -12 25 -22 54 -22 66 0 12 -7 30 -15 41 -8 10 -15 27 -15 37 0
10 -6 28 -14 40 -8 12 -17 39 -20 59 -4 21 -19 61 -35 90 -26 50 -44 95 -43
109 1 3 -3 22 -8 43 -13 59 0 80 74 114 53 25 77 30 120 28 29 -2 66 2 81 8
19 8 49 9 94 3 36 -5 77 -8 91 -7z m-1221 -249 c5 -7 11 -11 14 -9 13 7 86
-75 98 -110 6 -20 17 -43 23 -51 9 -12 8 -13 -2 -7 -11 7 -12 4 -3 -12 6 -12
16 -24 21 -27 14 -9 50 -85 50 -107 0 -10 5 -18 10 -18 6 0 10 -6 10 -14 0 -8
6 -21 14 -28 7 -8 17 -24 20 -36 4 -12 13 -22 19 -22 8 0 8 -3 -1 -9 -11 -7
-11 -11 2 -24 9 -8 16 -20 16 -25 0 -5 11 -30 25 -56 14 -26 25 -56 25 -67 0
-10 5 -19 10 -19 6 0 10 -7 10 -15 0 -8 4 -14 9 -13 5 2 16 -6 24 -16 11 -15
16 -16 22 -6 5 9 4 11 -3 6 -7 -4 -12 -1 -12 8 0 14 3 14 20 4 12 -8 15 -15 9
-19 -14 -9 -6 -45 9 -42 14 3 16 -33 3 -41 -13 -8 -8 -34 12 -57 9 -10 17 -25
17 -33 0 -8 7 -16 15 -20 8 -3 15 -14 15 -24 0 -11 6 -25 14 -31 8 -7 13 -23
10 -37 -3 -17 0 -24 11 -24 9 0 14 -4 10 -9 -3 -6 4 -15 15 -21 11 -6 20 -17
20 -25 0 -8 14 -37 30 -64 29 -47 36 -70 47 -158 4 -33 1 -46 -15 -63 -12 -14
-25 -19 -33 -14 -9 5 -10 2 -6 -9 5 -14 0 -16 -43 -13 -57 5 -120 32 -120 52
0 8 -4 14 -9 14 -10 0 -17 12 -60 97 -14 26 -35 61 -48 76 -13 16 -23 37 -23
47 0 10 -4 21 -9 24 -4 3 -14 26 -21 51 -7 25 -19 45 -26 45 -8 0 -14 -4 -14
-8 0 -8 -57 -39 -74 -40 -5 0 -13 -7 -18 -16 -5 -9 -15 -16 -22 -16 -7 0 -30
-9 -52 -19 -21 -10 -57 -24 -79 -30 -22 -6 -56 -22 -75 -36 -21 -15 -48 -25
-69 -25 -71 -1 -77 -19 -97 -265 -4 -44 -8 -91 -9 -105 -1 -14 -3 -46 -4 -71
-1 -63 -26 -93 -75 -92 -20 1 -36 -3 -36 -8 0 -17 -25 -4 -57 31 -18 19 -33
43 -33 52 0 9 -7 23 -15 32 -18 18 -20 40 -2 30 8 -6 8 -3 -2 9 -8 10 -10 24
-6 34 4 10 9 66 10 124 2 59 8 116 14 126 5 11 12 42 15 69 14 132 19 160 26
174 7 14 16 56 35 169 3 19 10 42 15 52 10 17 40 135 44 174 5 34 17 65 26 65
5 0 7 7 4 15 -4 8 1 26 10 40 9 14 14 36 12 50 -3 14 -1 25 4 25 5 0 7 6 4 14
-3 8 4 32 15 55 12 22 21 58 21 79 0 23 6 45 15 52 8 7 15 21 15 31 0 10 5 21
10 24 6 4 8 10 5 15 -3 5 -1 11 4 14 4 3 11 23 15 45 5 32 12 41 38 51 18 7
38 18 43 25 35 39 79 51 94 26z m-1275 -367 c3 -8 0 -14 -6 -14 -18 0 -3 -10
22 -15 28 -5 25 -2 43 -47 12 -28 13 -38 4 -38 -8 0 -8 -3 -2 -8 6 -4 11 -34
13 -67 3 -59 29 -145 45 -145 4 0 4 -7 -1 -16 -7 -12 -2 -29 14 -58 13 -22 24
-49 24 -59 0 -11 4 -15 12 -11 7 5 8 3 3 -5 -4 -7 -3 -23 3 -34 12 -25 22 -55
21 -63 0 -3 6 -15 14 -27 7 -12 18 -35 22 -52 5 -16 9 -32 10 -35 1 -3 5 -18
9 -35 4 -16 12 -41 18 -55 6 -14 15 -36 21 -50 5 -14 13 -33 18 -42 5 -10 9
-27 9 -38 0 -12 7 -20 18 -20 13 0 14 -2 3 -9 -8 -6 -10 -14 -5 -22 5 -8 10
-23 11 -33 2 -11 11 -28 20 -38 9 -10 14 -18 10 -18 -3 0 8 -28 25 -62 17 -35
31 -68 32 -75 1 -7 5 -16 9 -19 4 -4 7 -15 7 -25 0 -10 9 -33 20 -51 11 -19
21 -44 23 -56 2 -12 6 -24 9 -28 8 -8 -1 -34 -20 -56 -29 -34 -152 -56 -152
-28 0 4 -11 11 -25 14 -14 4 -29 14 -32 24 -4 9 -13 23 -20 30 -7 7 -13 22
-13 32 0 10 -4 20 -8 22 -9 3 -61 129 -68 161 -1 10 -10 32 -18 49 -9 16 -18
45 -22 64 -3 19 -10 34 -14 34 -4 0 -10 12 -13 28 -6 34 -40 126 -48 130 -3 1
-4 13 -2 27 5 22 3 23 -28 18 -19 -3 -38 -9 -44 -13 -5 -4 -62 -35 -126 -67
-64 -33 -130 -69 -146 -81 -17 -12 -38 -22 -45 -22 -8 0 -27 -10 -41 -22 -15
-13 -62 -41 -104 -63 -91 -46 -133 -73 -151 -97 -7 -10 -18 -18 -24 -18 -5 0
-23 -11 -40 -25 -16 -14 -36 -25 -44 -25 -8 0 -37 -22 -64 -50 -27 -27 -54
-50 -60 -50 -7 0 -7 -8 2 -22 7 -13 13 -25 13 -28 1 -3 7 -18 13 -33 7 -16 12
-34 12 -42 0 -8 5 -17 10 -20 6 -3 10 -17 10 -30 0 -13 5 -27 10 -30 6 -4 10
-14 8 -23 -1 -10 1 -23 5 -29 5 -8 -2 -23 -17 -38 -15 -14 -26 -31 -27 -38 0
-9 -2 -8 -6 1 -3 8 -11 4 -25 -13 -23 -29 -41 -31 -94 -9 -42 18 -55 31 -80
84 -9 19 -23 43 -32 53 -8 9 -12 17 -7 17 4 0 2 7 -5 15 -7 9 -10 18 -7 22 4
3 -2 14 -14 24 -14 12 -16 18 -7 21 9 3 4 15 -15 37 -15 18 -27 43 -27 56 0
12 -7 28 -15 35 -9 7 -14 18 -12 24 2 6 -3 17 -10 25 -8 7 -12 19 -9 27 3 7
-2 18 -10 24 -8 7 -14 18 -14 26 0 7 -9 28 -20 47 -21 36 -27 55 -37 117 -3
19 -13 46 -23 60 -22 32 -61 136 -53 144 3 3 -2 8 -11 12 -9 3 -16 17 -16 31
0 13 -7 37 -15 52 -8 16 -12 31 -8 34 3 4 -1 17 -9 29 -8 13 -23 55 -33 93
-10 39 -22 75 -27 81 -11 15 -5 81 10 96 6 6 30 10 53 10 24 -1 46 3 49 7 3 5
20 4 39 -3 30 -9 38 -20 64 -81 32 -77 87 -239 92 -270 2 -18 18 -56 65 -160
59 -131 70 -157 65 -165 -8 -13 14 -52 25 -45 6 3 7 -1 4 -9 -4 -11 0 -16 14
-16 11 0 23 7 26 16 3 8 9 13 14 10 4 -2 17 9 27 25 13 18 34 33 58 40 22 6
59 30 89 59 29 28 57 50 63 50 6 0 26 13 45 28 19 16 52 36 72 45 20 10 40 21
42 26 3 5 17 12 31 15 14 4 48 24 77 46 28 21 63 42 77 45 14 3 43 17 63 31
21 13 43 24 49 24 10 0 61 33 85 55 6 5 37 21 67 35 60 27 77 51 55 78 -19 23
-47 91 -51 123 -1 15 -9 34 -16 43 -8 9 -16 47 -18 84 -2 37 -8 79 -12 93 -5
14 -7 36 -6 50 5 41 33 99 49 100 9 1 20 2 26 3 5 0 16 10 24 21 17 24 52 30
60 9z m7246 -2064 c0 -5 -2 -10 -4 -10 -3 0 -8 5 -11 10 -3 6 -1 10 4 10 6 0
11 -4 11 -10z m-8910 -755 c8 -5 97 -18 125 -19 11 0 31 -10 44 -22 13 -12 32
-21 43 -19 13 3 22 -4 29 -22 6 -16 14 -23 24 -19 8 3 19 -3 25 -14 5 -10 23
-21 39 -25 16 -3 32 -13 35 -22 4 -10 10 -12 19 -6 6 5 26 7 42 4 l30 -6 -23
-17 -24 -16 31 -7 c17 -4 31 -12 31 -18 0 -7 4 -6 9 2 7 10 4 19 -7 29 -12 9
-12 11 -2 6 8 -4 23 -14 32 -22 10 -8 26 -12 37 -9 26 6 34 -25 15 -61 -8 -15
-14 -33 -14 -39 0 -7 -7 -13 -15 -13 -8 0 -16 -6 -17 -12 -7 -62 -19 -108 -28
-108 -14 0 -39 -61 -38 -92 0 -16 4 -28 9 -28 5 0 0 -9 -10 -19 -11 -11 -24
-37 -30 -57 -9 -31 -8 -41 6 -56 15 -17 15 -18 -3 -18 -17 0 -19 -7 -19 -62 0
-62 -9 -102 -33 -145 -7 -12 -12 -33 -12 -47 0 -14 -4 -26 -9 -26 -9 0 -16
-33 -26 -108 -2 -18 -9 -39 -14 -46 -8 -10 -7 -17 4 -26 9 -7 13 -20 10 -29
-4 -9 -9 -45 -12 -81 -3 -36 -8 -69 -12 -75 -4 -5 -6 -20 -5 -32 0 -13 -2 -23
-7 -23 -4 0 -9 -26 -11 -57 -3 -58 -3 -58 -36 -61 -18 -2 -40 2 -49 9 -8 7
-42 14 -76 15 -33 1 -70 7 -81 12 -37 18 -60 25 -81 27 -11 0 -24 3 -30 7 -5
3 -31 9 -57 12 -27 4 -48 11 -48 17 0 5 -6 9 -12 9 -7 0 -24 9 -38 20 -14 11
-34 20 -45 20 -10 0 -45 18 -76 40 -32 22 -64 40 -72 40 -9 0 -24 11 -35 25
-11 14 -27 25 -35 25 -9 0 -18 8 -21 18 -7 22 -84 87 -114 96 -12 4 -20 11
-17 16 3 4 -2 13 -10 20 -8 7 -15 18 -15 25 0 7 -6 18 -14 24 -8 7 -18 27 -22
44 -3 17 -16 47 -28 67 -12 19 -27 47 -34 63 -6 15 -16 27 -21 27 -13 0 -6
226 9 275 6 22 14 56 17 75 3 19 15 47 27 63 11 16 19 39 18 53 -2 16 1 24 12
24 9 0 16 8 16 18 0 27 178 200 238 231 14 8 48 31 75 52 26 21 67 44 90 50
23 6 51 15 62 20 11 4 29 10 40 12 23 5 185 -2 195 -8z m640 -210 c-7 -9 -15
-13 -17 -11 -7 7 7 26 19 26 6 0 6 -6 -2 -15z"/>
<path d="M11856 11421 c-3 -4 -3 -73 0 -152 3 -79 7 -202 9 -274 3 -127 11
-214 19 -222 2 -2 25 8 51 22 26 14 63 25 81 25 34 0 128 17 154 27 8 4 40 12
70 19 66 15 233 73 240 83 3 4 27 20 54 36 62 36 88 76 72 111 -6 13 -18 26
-27 29 -10 3 -32 20 -51 38 -19 18 -59 40 -89 51 -30 10 -64 29 -77 42 -13 13
-34 24 -49 24 -14 0 -41 10 -60 21 -32 20 -79 36 -130 44 -12 2 -32 10 -45 19
-12 9 -32 16 -44 16 -12 0 -52 11 -88 25 -73 27 -82 29 -90 16z"/>
<path d="M9233 10622 c-11 -15 -24 -48 -27 -72 -8 -48 -54 -208 -66 -225 -4
-5 -8 -32 -9 -60 -1 -29 -8 -55 -17 -61 -8 -6 -14 -16 -14 -22 0 -12 76 14
101 35 8 7 25 13 36 13 11 0 31 8 44 19 13 10 40 23 59 30 55 18 68 32 63 68
-3 19 -10 30 -17 27 -6 -2 -13 5 -14 16 -4 43 -6 50 -14 50 -4 0 -8 11 -8 23
0 13 -9 34 -20 47 -11 13 -20 29 -20 37 0 7 -13 33 -28 58 l-28 45 -21 -28z"/>
<path d="M13667 13604 c-14 -14 -6 -24 19 -24 16 0 24 5 22 13 -5 14 -31 21
-41 11z"/>
<path d="M13793 13296 c2 -6 16 -12 31 -14 20 -3 27 0 24 10 -3 7 -17 13 -32
14 -15 1 -25 -4 -23 -10z"/>
<path d="M14050 12756 c0 -7 9 -16 20 -19 23 -6 26 3 8 21 -16 16 -28 15 -28
-2z"/>
<path d="M12425 8305 c-52 -26 -97 -57 -126 -89 -67 -71 -79 -85 -79 -95 0 -5
-9 -11 -20 -14 -11 -3 -20 -13 -20 -24 0 -39 -21 -90 -50 -121 -16 -18 -30
-43 -30 -56 0 -12 -3 -26 -7 -30 -5 -4 -8 -13 -8 -19 -1 -7 -6 -11 -13 -10 -6
2 -9 -3 -6 -10 7 -20 -13 -68 -28 -65 -13 3 -17 -16 -19 -95 0 -26 -5 -49 -10
-52 -4 -3 -6 -18 -3 -33 4 -19 -1 -34 -16 -49 -11 -13 -16 -23 -10 -23 7 0 10
-20 8 -55 -2 -36 -7 -55 -15 -55 -8 0 -13 -13 -13 -30 0 -17 -5 -30 -12 -30
-8 0 -9 -3 -3 -8 6 -4 10 -59 10 -129 0 -68 4 -123 9 -123 10 0 3 -84 -9 -114
-7 -16 -5 -17 15 -11 22 7 22 6 7 -15 -15 -21 -12 -59 5 -71 5 -3 9 -28 10
-55 0 -31 7 -57 18 -72 10 -12 26 -47 35 -77 10 -30 22 -52 26 -49 5 3 9 0 9
-7 0 -25 125 -131 189 -160 58 -27 75 -30 136 -26 122 7 207 25 222 47 8 11
22 20 32 20 21 0 100 59 100 75 1 6 10 16 21 23 11 7 20 20 20 30 0 9 20 36
44 59 34 33 44 51 49 85 3 23 13 47 21 54 9 6 16 17 16 23 0 7 4 10 9 6 6 -3
13 11 16 32 4 21 13 62 20 91 7 28 11 60 8 70 -2 10 7 33 20 53 13 19 23 44
21 54 -2 10 4 34 12 53 12 30 16 96 12 212 -2 53 10 209 17 220 4 7 4 15 -1
19 -5 3 -10 24 -11 46 -7 120 -17 196 -34 249 -10 33 -19 69 -19 82 0 16 -7
24 -22 26 -16 2 -24 12 -28 33 -4 17 -13 41 -21 55 -19 32 -119 129 -141 136
-10 3 -18 9 -18 14 0 18 -118 42 -215 44 -40 1 -67 -7 -130 -39z"/>
<path d="M9368 8175 c-15 -8 -29 -24 -33 -34 -3 -11 -14 -23 -25 -26 -10 -3
-21 -12 -24 -20 -3 -8 -12 -15 -19 -15 -10 0 -13 -9 -11 -31 2 -16 0 -28 -4
-25 -10 6 -53 -39 -71 -73 -7 -13 -14 -51 -15 -85 -1 -34 -5 -66 -9 -72 -9
-15 -28 -94 -31 -129 -2 -16 -10 -46 -19 -65 -8 -19 -12 -39 -8 -45 11 -16 -3
-74 -21 -86 -5 -3 -10 -29 -12 -57 -2 -28 -9 -58 -16 -67 -8 -10 -9 -15 -1
-15 12 0 15 -36 3 -43 -11 -8 -6 -158 7 -191 9 -21 9 -31 1 -36 -14 -9 6 -208
22 -228 8 -10 6 -11 -8 -6 -11 3 -5 -6 15 -24 29 -25 33 -34 29 -63 -6 -41 -1
-59 18 -59 8 0 14 -5 14 -11 0 -6 -6 -9 -14 -6 -20 8 -28 -19 -11 -37 8 -7 12
-16 9 -18 -2 -3 5 -13 16 -23 11 -10 20 -28 20 -39 0 -25 27 -59 58 -75 12 -7
22 -20 22 -30 0 -21 31 -50 83 -76 20 -11 37 -24 37 -28 0 -5 6 -7 14 -4 7 3
18 1 24 -5 7 -7 21 -7 44 0 18 5 52 10 75 10 61 0 109 10 123 27 7 8 26 15 42
15 16 0 31 6 34 14 3 8 13 17 22 20 22 8 55 28 76 45 9 8 19 11 22 8 4 -3 11
-2 18 4 34 28 89 59 97 54 5 -4 12 1 15 9 3 9 12 16 20 16 7 0 17 12 20 28 4
15 16 47 27 72 11 25 21 64 23 87 2 23 8 53 15 65 7 12 12 36 11 52 0 17 5 34
11 38 9 6 8 10 -3 18 -12 7 -12 12 -2 22 6 6 12 34 12 61 0 32 4 46 11 42 7
-5 7 -2 0 11 -19 36 -27 79 -21 119 3 22 2 48 -3 59 -5 10 -7 38 -5 62 2 24 0
44 -3 44 -11 0 -7 55 5 63 8 6 8 10 -1 14 -7 2 -13 15 -13 28 0 13 -5 27 -10
30 -8 5 -7 12 2 23 10 12 10 14 1 8 -9 -4 -13 -1 -13 9 0 12 -5 15 -17 11 -17
-6 -17 -5 0 8 21 16 22 39 2 56 -8 7 -15 21 -15 31 0 10 -5 21 -11 25 -8 4 -7
9 2 15 12 7 12 9 0 9 -8 0 -11 7 -8 20 3 11 1 20 -3 20 -5 0 -11 18 -15 40 -4
22 -10 38 -15 35 -10 -6 -21 21 -14 38 2 7 -7 23 -21 35 -14 12 -25 30 -25 40
0 10 -11 28 -25 40 -14 12 -25 28 -25 35 0 8 -15 28 -32 44 -38 36 -68 73 -68
85 0 4 -7 8 -15 8 -9 0 -18 7 -21 15 -4 8 -14 15 -24 15 -11 0 -22 5 -25 10
-3 6 -22 10 -41 10 -20 0 -34 5 -34 13 0 7 -17 13 -43 14 -23 2 -71 5 -107 8
-47 4 -72 1 -92 -10z"/>
<path d="M11360 6552 c0 -4 -68 -7 -150 -6 -114 0 -153 -3 -161 -13 -7 -7 -21
-13 -32 -13 -11 0 -38 -9 -61 -19 -23 -11 -58 -22 -78 -26 -21 -3 -38 -11 -38
-18 0 -7 -12 -20 -28 -30 -15 -9 -57 -36 -94 -60 -65 -41 -128 -116 -128 -151
0 -8 -7 -19 -15 -26 -8 -7 -13 -16 -10 -20 3 -5 1 -11 -5 -15 -5 -3 -10 -17
-10 -30 0 -13 -4 -26 -9 -29 -5 -3 -7 -15 -4 -26 3 -12 0 -20 -6 -20 -7 0 -9
6 -6 13 4 6 -1 3 -10 -8 -10 -13 -15 -34 -13 -59 2 -26 -3 -42 -13 -50 -10 -7
-15 -22 -13 -40 2 -16 0 -34 -3 -39 -10 -16 -12 -71 -3 -86 4 -8 4 -24 0 -36
-4 -11 -4 -44 1 -73 5 -28 13 -75 18 -102 4 -28 16 -59 25 -69 9 -10 18 -30
20 -43 3 -28 59 -88 81 -88 8 0 15 -8 15 -17 0 -10 14 -29 31 -42 16 -13 28
-30 25 -38 -3 -7 0 -13 7 -13 7 0 17 -8 24 -19 7 -11 34 -24 64 -31 46 -11
113 -42 129 -60 13 -14 51 -29 62 -25 8 3 23 -3 35 -14 11 -11 23 -17 27 -14
3 3 13 0 22 -7 13 -11 17 -11 24 -1 5 9 9 10 14 2 4 -6 12 -9 17 -5 5 3 33 -1
62 -9 43 -13 62 -13 112 -3 33 7 82 11 110 8 85 -7 107 -3 131 19 15 14 31 20
44 16 28 -7 75 18 100 54 12 16 28 29 36 29 8 0 14 4 14 8 0 4 25 21 55 37 30
17 55 33 55 37 0 4 11 19 25 34 14 15 25 35 25 45 0 12 5 16 15 13 10 -4 15 0
15 14 0 12 5 24 11 28 6 3 9 17 6 30 -2 14 -1 26 3 29 3 2 15 38 25 79 11 42
22 76 26 76 4 0 1 13 -7 30 -17 32 -10 100 10 100 6 0 3 5 -6 11 -23 13 -24
59 -2 59 14 0 14 2 0 22 -9 12 -16 32 -16 44 0 12 -5 24 -11 26 -9 3 -9 9 -1
24 10 19 4 77 -13 118 -11 25 -55 72 -66 68 -5 -1 -7 8 -4 21 4 15 0 28 -10
37 -10 8 -21 24 -26 37 -5 13 -14 23 -21 23 -7 0 -26 28 -43 63 -16 34 -40 67
-52 73 -13 6 -31 18 -41 27 -10 10 -24 17 -30 17 -6 0 -26 13 -44 28 -30 26
-71 48 -74 40 0 -2 -8 3 -17 11 -10 7 -17 9 -17 4 0 -16 -51 -2 -92 24 -21 13
-38 20 -38 15z m-103 -373 c6 -6 30 -11 54 -13 24 -1 51 -6 59 -11 8 -6 24
-14 34 -20 10 -5 24 -19 30 -30 6 -11 23 -32 39 -48 15 -15 27 -33 27 -41 0
-7 7 -19 15 -26 8 -7 12 -16 10 -21 -3 -4 1 -11 9 -16 28 -16 57 -90 57 -145
-1 -91 -5 -123 -20 -134 -10 -8 -11 -13 -3 -18 17 -10 15 -46 -3 -46 -8 0 -15
-6 -15 -13 0 -24 -61 -76 -96 -83 -19 -3 -34 -10 -34 -14 0 -4 -21 -12 -47
-17 -27 -6 -57 -14 -67 -18 -12 -6 -17 -5 -13 2 4 6 -11 9 -39 8 -25 0 -47 2
-50 6 -2 4 -26 7 -54 7 -39 1 -60 8 -94 31 -25 17 -49 31 -55 31 -6 0 -11 5
-11 10 0 6 -7 10 -15 10 -8 0 -15 4 -15 9 0 5 -9 13 -21 16 -12 4 -29 14 -39
23 -17 14 -76 39 -108 46 -7 1 -19 11 -26 22 -12 16 -12 33 -1 101 14 85 26
118 57 144 10 9 18 23 18 32 0 23 22 71 37 80 7 4 13 14 13 22 0 14 76 55 100
55 6 0 13 7 16 15 4 8 19 15 34 15 16 0 31 4 35 10 3 5 12 7 20 3 9 -3 21 -1
28 5 26 21 116 29 134 11z"/>
<path d="M12724 4746 c-32 -10 -81 -75 -76 -100 1 -7 -6 -21 -16 -32 -10 -11
-17 -24 -15 -30 2 -6 -5 -20 -15 -32 -12 -14 -17 -31 -14 -47 2 -14 -5 -45
-18 -71 -12 -26 -19 -55 -17 -66 3 -10 2 -16 -2 -13 -5 2 -13 -7 -19 -20 -7
-14 -16 -25 -22 -25 -5 0 -10 -10 -10 -23 0 -22 -19 -65 -50 -115 -8 -13 -30
-32 -47 -43 -18 -12 -33 -28 -33 -37 -1 -19 -23 -52 -34 -52 -12 0 -44 -41
-63 -80 -19 -39 -40 -59 -63 -60 -22 -1 -93 -67 -85 -79 3 -6 2 -11 -4 -11 -6
0 -19 -9 -29 -20 -10 -11 -31 -21 -46 -22 -16 -2 -31 -8 -33 -15 -3 -7 -9 -10
-14 -8 -10 7 -49 -17 -103 -62 -22 -18 -55 -36 -75 -39 -20 -4 -45 -12 -56
-18 -11 -6 -33 -12 -50 -13 -52 -5 -74 -9 -81 -16 -4 -4 -22 -7 -41 -7 -18 0
-36 -6 -38 -12 -4 -10 -43 -13 -150 -13 -80 0 -145 3 -145 6 0 3 -6 6 -12 6
-31 1 -114 16 -123 21 -5 3 -16 7 -25 8 -8 0 -38 8 -67 17 -28 8 -54 13 -57
10 -3 -4 -6 -2 -6 4 0 12 -44 33 -69 33 -9 0 -27 9 -39 20 -12 12 -22 17 -22
13 0 -4 -4 -2 -9 6 -8 13 -41 20 -98 21 -12 0 -28 9 -36 20 -8 11 -17 17 -20
13 -4 -3 -7 0 -7 9 0 8 -18 23 -40 34 -22 10 -40 25 -40 32 0 6 -8 12 -18 12
-16 0 -112 91 -112 105 0 3 -12 17 -27 30 -20 16 -30 20 -35 12 -5 -8 -8 -6
-8 5 0 9 -8 23 -19 30 -10 7 -31 39 -46 71 -18 36 -34 57 -46 57 -19 0 -45 56
-55 122 -4 24 -14 49 -23 55 -14 11 -14 14 -2 22 21 14 -34 62 -68 60 -14 -1
-39 4 -56 10 -26 11 -32 10 -46 -8 -10 -12 -24 -21 -33 -21 -14 0 -37 -36 -41
-65 -6 -41 -19 -92 -26 -100 -4 -6 -4 -17 1 -25 6 -8 10 -34 10 -57 0 -24 5
-43 10 -43 6 0 10 -9 10 -19 0 -30 11 -51 26 -51 8 0 14 -7 14 -15 0 -9 7 -18
16 -22 8 -3 13 -12 10 -19 -3 -7 -1 -16 4 -19 6 -4 10 -17 10 -31 0 -13 5 -24
10 -24 6 0 10 -9 10 -19 0 -11 8 -26 19 -33 10 -7 19 -17 19 -21 2 -10 50 -50
80 -66 12 -7 20 -16 17 -22 -4 -5 -1 -9 5 -9 6 0 14 -8 17 -17 7 -20 70 -101
93 -121 8 -7 36 -24 63 -37 26 -14 47 -29 47 -34 0 -5 8 -11 18 -15 26 -9 79
-43 102 -66 11 -11 27 -20 35 -20 21 0 95 -33 95 -43 0 -4 4 -5 10 -2 5 3 20
-1 32 -9 12 -9 31 -16 41 -16 10 0 16 -4 12 -9 -3 -5 5 -13 17 -16 13 -4 30
-14 39 -21 10 -9 40 -15 75 -16 35 0 66 -7 76 -15 9 -8 27 -16 40 -18 12 -2
38 -8 56 -13 18 -6 33 -11 35 -11 1 0 10 -3 20 -6 9 -4 26 -5 37 -2 11 3 20 2
20 -2 0 -4 19 -7 43 -5 23 1 71 -3 107 -8 36 -6 72 -10 80 -10 112 3 262 14
290 22 20 5 46 19 57 30 12 11 25 16 28 10 3 -5 11 -7 18 -5 7 2 34 6 60 9 27
3 64 15 82 26 20 13 47 20 64 19 16 -2 36 3 45 10 9 7 16 11 16 7 0 -3 23 9
50 28 28 19 57 33 64 30 7 -3 39 20 72 51 35 33 68 55 81 55 13 0 23 5 23 10
0 6 7 10 15 10 8 0 28 17 43 39 15 21 42 44 60 50 17 7 32 17 32 22 0 11 36
49 48 49 4 1 20 28 37 60 16 33 37 63 48 66 10 3 16 11 14 17 -4 14 23 47 40
47 7 0 17 9 23 20 6 11 16 18 21 14 6 -3 13 3 16 15 3 12 9 21 13 21 5 0 14
17 21 38 6 20 21 50 33 67 11 16 21 36 23 44 1 8 6 17 12 21 6 3 12 19 13 34
2 16 11 34 20 40 10 6 18 18 18 28 0 9 9 23 21 31 13 10 16 16 8 19 -9 3 -7
13 7 39 10 19 24 37 29 41 6 5 5 8 -3 8 -16 0 -5 50 14 66 11 9 11 14 -1 30
-19 25 -19 34 2 34 13 0 14 3 5 12 -16 16 -15 55 1 61 8 4 7 6 -3 6 -10 1 -16
13 -17 34 -3 42 -21 76 -58 109 -29 26 -101 52 -117 42 -4 -3 -16 -1 -25 3
-10 5 -32 5 -49 -1z"/>
<path d="M12585 4580 c-3 -5 -1 -10 4 -10 6 0 11 5 11 10 0 6 -2 10 -4 10 -3
0 -8 -4 -11 -10z"/>
</g>
</svg>
